<?xml version="1.0" standalone="no"?>
<!DOCTYPE svg PUBLIC "-//W3C//DTD SVG 20010904//EN"
 "http://www.w3.org/TR/2001/REC-SVG-20010904/DTD/svg10.dtd">
<svg version="1.0" xmlns="http://www.w3.org/2000/svg" width="1920.000000pt" height="1920.000000pt" viewBox="0 0 1920.000000 1920.000000" preserveAspectRatio="xMidYMid meet">

<g transform="translate(0.000000,1920.000000) scale(0.100000,-0.100000)" fill="#000000" stroke="none">
<path d="M11655 17072 c-5 -25 -24 -38 -148 -99 -145 -72 -178 -97 -196 -145
-16 -42 4 -34 36 14 23 34 52 54 168 115 116 62 143 73 158 63 14 -9 30 -6 75
15 31 14 74 30 97 36 101 26 99 27 -42 28 l-141 1 -7 -28z"></path>
<path d="M10430 17015 c-16 -19 -7 -30 14 -18 9 5 12 13 7 21 -6 10 -11 10
-21 -3z"></path>
<path d="M10467 16964 c-7 -7 -10 -44 -3 -44 19 0 66 25 63 34 -4 13 -49 20
-60 10z"></path>
<path d="M10342 16919 c-17 -24 -30 -44 -28 -47 3 -2 43 -5 91 -7 64 -3 85 -1
82 8 -2 7 -19 14 -38 17 -21 3 -34 11 -35 20 -2 37 -5 42 -18 37 -8 -3 -16 -1
-18 4 -2 5 -18 -9 -36 -32z"></path>
<path d="M10027 16936 c-18 -14 -18 -16 -2 -40 20 -31 7 -35 -18 -6 -14 17
-20 18 -37 8 -13 -8 -20 -24 -20 -42 0 -27 2 -28 35 -23 19 3 35 2 35 -3 0 -5
-10 -10 -22 -12 -42 -6 -33 -64 10 -73 19 -3 22 1 22 25 0 16 5 32 10 35 6 4
10 -7 10 -24 0 -28 3 -31 30 -31 19 0 33 7 40 19 14 27 14 28 -21 40 -17 6
-28 15 -24 21 4 6 12 6 24 -2 45 -28 73 36 29 67 -22 15 -24 14 -40 -6 -20
-24 -23 -18 -7 12 8 17 7 23 -8 35 -22 17 -24 17 -46 0z"></path>
<path d="M12280 16915 c-10 -12 -10 -19 -2 -27 20 -20 13 -30 -9 -14 -29 20
-59 1 -59 -37 0 -28 1 -29 43 -22 l42 6 -35 -18 c-25 -13 -34 -24 -32 -38 4
-25 12 -32 36 -37 15 -2 22 6 29 32 l10 35 6 -30 c8 -39 53 -48 71 -15 13 25
15 22 -25 43 l-30 16 40 -2 c36 -2 40 0 43 24 4 30 -28 62 -52 53 -9 -3 -16
-12 -16 -20 0 -8 -5 -14 -10 -14 -6 0 -4 13 5 30 14 27 14 30 -4 40 -27 14
-36 13 -51 -5z"></path>
<path d="M10495 16911 c-7 -12 12 -24 25 -16 11 7 4 25 -10 25 -5 0 -11 -4
-15 -9z"></path>
<path d="M12100 16859 c-25 -11 -97 -36 -160 -55 -120 -37 -127 -40 -117 -51
4 -3 62 13 129 36 68 24 140 48 160 54 21 6 40 17 42 24 7 17 0 16 -54 -8z"></path>
<path d="M10230 16858 c-19 -6 -30 -12 -24 -14 5 -3 28 2 50 10 45 17 26 19
-26 4z"></path>
<path d="M11514 16831 c-18 -11 -34 -23 -37 -28 -3 -5 8 -28 24 -52 32 -49 37
-71 14 -71 -8 0 -12 6 -9 14 3 7 -8 28 -25 46 -35 39 -61 37 -104 -8 -27 -28
-28 -32 -17 -72 11 -40 13 -42 43 -36 87 16 105 18 111 8 4 -6 -2 -8 -14 -5
-11 3 -20 1 -20 -5 0 -5 -15 -13 -34 -16 -45 -9 -60 -28 -52 -70 8 -44 37 -68
83 -70 31 -1 38 3 43 24 4 14 3 30 -2 37 -5 7 -5 14 2 18 5 3 10 15 10 26 0
10 5 19 10 19 6 0 10 -22 10 -48 0 -70 15 -86 74 -78 44 7 49 11 66 49 10 23
17 45 14 49 -3 4 -21 10 -41 14 -51 10 -100 54 -55 50 9 0 19 -4 22 -8 3 -4
25 -11 48 -16 42 -10 43 -10 57 25 8 20 15 46 15 58 0 27 -61 85 -90 85 -22 0
-51 -37 -43 -56 3 -9 -2 -14 -15 -14 -11 0 -23 -6 -25 -12 -4 -9 -6 -8 -6 2
-1 8 13 35 29 60 16 25 30 48 30 52 0 8 -64 48 -76 48 -5 0 -23 -9 -40 -19z
m31 -171 c3 -5 1 -10 -4 -10 -6 0 -11 5 -11 10 0 6 2 10 4 10 3 0 8 -4 11 -10z"></path>
<path d="M9871 16738 c-61 -75 -91 -133 -91 -176 0 -45 27 -31 35 19 4 21 25
66 48 100 72 106 79 119 69 119 -5 0 -33 -28 -61 -62z"></path>
<path d="M10282 16745 c-51 -19 -122 -48 -157 -65 -86 -41 -212 -157 -192
-177 3 -2 36 26 74 64 72 73 150 117 308 175 44 16 82 31 84 34 12 11 -33 -1
-117 -31z"></path>
<path d="M9635 16723 c8 -18 18 -33 20 -33 10 0 4 16 -16 40 l-20 25 16 -32z"></path>
<path d="M8851 16657 c-19 -37 -11 -69 21 -78 30 -8 34 -1 40 61 3 31 0 35
-23 38 -18 2 -29 -4 -38 -21z m26 -59 c-3 -8 -6 -5 -6 6 -1 11 2 17 5 13 3 -3
4 -12 1 -19z"></path>
<path d="M11163 16607 c-70 -57 -194 -186 -234 -244 l-16 -23 -73 25 c-270 92
-482 115 -591 64 -61 -29 -119 -89 -206 -215 l-52 -76 -24 39 c-13 21 -29 48
-36 61 -11 21 -45 30 -55 14 -2 -4 13 -43 35 -87 21 -44 38 -83 39 -87 0 -4
-54 -101 -121 -215 -248 -427 -341 -542 -491 -613 -138 -64 -388 -134 -648
-179 -146 -26 -310 -49 -375 -53 l-50 -3 -9 58 c-4 31 -5 81 -2 110 l7 53 85
18 c77 17 108 35 91 52 -3 3 -40 -2 -82 -11 -42 -10 -79 -15 -81 -12 -10 10
27 120 66 199 49 99 75 136 227 326 69 86 144 185 167 218 l41 62 69 11 c88
15 180 58 237 112 35 33 37 36 9 15 -91 -67 -188 -106 -262 -106 -28 0 -37 17
-19 35 12 14 61 152 61 174 0 10 9 26 20 36 10 9 26 39 35 66 9 26 27 64 41
84 27 40 31 65 11 65 -16 0 -47 -31 -47 -47 0 -6 -7 -16 -15 -23 -9 -7 -15 -8
-15 -2 0 5 -20 10 -45 9 -40 0 -45 -3 -39 -20 5 -16 3 -19 -10 -14 -21 8 -20
4 9 -39 14 -20 25 -42 25 -49 0 -7 6 -18 14 -24 13 -11 12 -19 -1 -64 -35
-121 -117 -248 -276 -429 l-86 -98 -21 27 c-11 14 -35 57 -52 95 -18 37 -35
68 -40 68 -4 0 -8 -2 -8 -5 0 -16 52 -139 73 -172 l24 -39 -44 -54 c-173 -214
-253 -422 -241 -629 2 -44 -1 -62 -10 -66 -8 -3 -82 -5 -165 -5 -390 0 -841
94 -1279 266 -163 64 -201 73 -294 74 -140 0 -341 -71 -516 -183 -31 -21 -60
-37 -63 -37 -9 0 3 86 20 150 7 28 11 50 8 50 -3 0 -16 -9 -30 -20 -14 -11
-32 -20 -40 -20 -19 0 -29 -33 -42 -135 -7 -61 -16 -95 -28 -106 -71 -68 -362
-226 -553 -299 -47 -18 -95 -44 -108 -57 -13 -12 -29 -23 -38 -23 -8 0 -20
-12 -26 -27 -17 -40 -38 -63 -58 -63 -9 0 -36 14 -59 30 -38 28 -45 30 -79 20
-220 -63 -562 -89 -717 -56 -212 45 -396 153 -560 328 -93 99 -142 167 -234
328 -80 139 -123 199 -205 288 -31 33 -56 62 -56 65 0 18 247 81 373 96 43 5
80 11 81 13 2 1 6 20 9 41 l6 37 -56 0 c-89 0 -256 -28 -385 -66 -66 -19 -124
-34 -129 -34 -6 0 -43 22 -84 50 -85 58 -221 127 -320 165 -76 28 -242 72
-290 77 l-30 3 -3 -97 -3 -96 78 -18 c249 -54 463 -167 635 -332 98 -94 149
-160 223 -290 l48 -84 -24 -101 c-19 -82 -24 -129 -24 -237 1 -125 3 -140 28
-202 31 -75 31 -81 -14 -170 -39 -77 -113 -163 -222 -258 -76 -67 -96 -80
-117 -75 -29 6 -135 -42 -166 -76 -16 -17 -16 -22 -4 -29 13 -8 12 -10 -2 -10
-10 0 -18 -5 -18 -12 0 -6 -3 -9 -6 -5 -3 3 -17 -7 -31 -23 -36 -44 -44 -144
-13 -183 12 -15 29 -27 39 -27 31 0 197 131 183 144 -3 3 0 6 6 6 6 0 14 9 17
21 5 16 10 18 20 9 21 -18 30 32 18 103 l-9 59 85 68 c134 107 239 226 276
314 l15 36 57 -46 c71 -58 149 -110 333 -222 l145 -88 9 -56 c9 -54 7 -60 -29
-130 -21 -40 -48 -87 -61 -105 -13 -17 -24 -39 -24 -48 0 -29 33 -12 64 34 24
36 30 41 38 27 7 -12 21 -16 49 -14 44 2 43 1 27 31 -10 20 -10 21 6 8 29 -24
26 -7 -9 64 -34 66 -49 155 -26 155 14 0 102 -69 164 -129 69 -66 103 -128
113 -202 8 -64 45 -169 75 -210 13 -18 19 -38 16 -51 -7 -26 14 -78 56 -140
31 -46 56 -62 58 -35 0 6 5 2 11 -10 6 -13 15 -23 19 -23 4 0 18 -10 31 -23
45 -44 198 -27 198 23 0 11 -8 33 -19 50 -29 48 -122 141 -154 155 -18 7 -25
15 -18 19 6 4 11 11 11 17 0 12 -102 12 -137 -2 -24 -9 -31 -7 -50 15 -32 37
-61 124 -72 216 -7 55 -20 98 -37 131 -51 94 -179 206 -401 354 -57 37 -103
72 -103 76 0 11 104 49 180 65 36 7 101 14 145 15 l80 1 -60 10 c-80 12 -221
-5 -319 -37 l-76 -26 -47 33 c-26 17 -76 56 -110 85 -34 29 -67 53 -72 53 -17
0 -41 43 -41 73 0 15 -6 38 -14 50 -12 18 -13 42 -6 127 9 103 26 203 39 227
4 8 22 -7 51 -43 69 -87 220 -227 307 -284 147 -97 296 -157 464 -186 155 -27
405 -9 660 47 51 11 58 11 82 -7 20 -14 25 -24 20 -39 -11 -32 -9 -173 3 -185
8 -8 10 2 7 37 -6 57 12 133 31 133 8 0 19 -7 26 -15 17 -20 30 -18 60 6 22
18 23 22 9 32 -51 39 -81 69 -73 76 5 5 47 21 94 36 250 81 539 217 705 334
271 189 335 231 402 265 143 73 266 101 373 86 33 -5 118 -31 188 -58 70 -27
151 -58 181 -68 54 -19 54 -19 90 -102 33 -76 40 -85 79 -102 33 -15 44 -26
48 -50 7 -34 15 -42 32 -31 8 5 -6 41 -45 119 -31 61 -55 114 -52 116 3 3 47
-6 99 -20 345 -90 714 -133 988 -114 494 35 998 145 1272 277 l94 45 69 -12
c61 -11 70 -10 88 6 10 9 19 21 19 25 0 4 -25 13 -55 20 -30 7 -55 14 -55 17
0 2 18 25 41 50 67 76 178 251 319 502 143 253 234 400 249 400 5 0 19 -12 30
-27 12 -14 22 -24 24 -22 28 48 28 49 6 80 l-21 31 38 39 c109 112 306 86 858
-111 94 -33 173 -57 177 -53 4 5 10 17 13 28 5 19 -8 26 -141 74 -82 30 -152
57 -156 61 -10 9 56 95 132 173 l55 57 87 0 c68 0 88 3 93 15 3 10 -1 15 -12
16 -9 1 -24 2 -32 3 -8 2 -31 3 -50 5 l-35 2 27 24 c26 22 30 55 7 55 -5 0
-43 -29 -86 -63z"></path>
<path d="M8939 16658 c-3 -7 -5 -58 -2 -58 2 0 15 8 29 17 25 16 25 17 8 30
-16 12 -32 17 -35 11z"></path>
<path d="M8754 16621 c4 -5 1 -11 -5 -13 -6 -2 -3 -13 9 -28 25 -30 43 -18 35
23 -4 18 -12 27 -25 27 -10 0 -17 -4 -14 -9z"></path>
<path d="M12014 16611 c-42 -26 -55 -46 -23 -36 56 17 90 35 84 45 -9 15 -26
12 -61 -9z"></path>
<path d="M13653 16608 c-12 -14 -14 -21 -5 -30 9 -9 16 -7 32 7 11 10 20 23
20 30 0 18 -28 14 -47 -7z"></path>
<path d="M12534 16571 c-18 -11 -34 -23 -37 -28 -3 -5 10 -31 28 -58 37 -54
44 -82 20 -82 -9 0 -14 6 -11 12 5 14 -68 95 -87 95 -7 0 -30 -14 -51 -32 -37
-30 -38 -33 -34 -85 3 -29 7 -56 11 -59 3 -4 35 1 71 11 66 18 96 16 96 -7 0
-9 -3 -9 -10 2 -9 13 -12 13 -21 -3 -6 -11 -17 -16 -28 -12 -10 3 -33 -5 -52
-18 -38 -26 -41 -49 -12 -104 18 -34 37 -43 96 -43 36 0 37 1 37 35 0 19 -4
35 -9 35 -9 0 20 69 30 70 4 0 9 -29 11 -65 2 -35 7 -67 10 -70 12 -12 107 -8
123 5 16 13 45 73 45 91 0 11 -45 30 -75 32 -21 2 -55 26 -55 39 0 5 11 8 25
8 14 0 25 -4 25 -9 0 -16 92 -24 101 -9 39 59 24 133 -33 168 -42 25 -40 25
-78 -6 -23 -20 -28 -29 -18 -35 7 -4 10 -9 8 -11 -28 -18 -53 -28 -57 -24 -5
5 29 65 62 112 15 20 14 23 -20 43 -45 26 -71 26 -111 2z m83 -317 c-3 -3 -12
-4 -19 -1 -8 3 -5 6 6 6 11 1 17 -2 13 -5z"></path>
<path d="M9589 16560 c-61 -32 -63 -40 -19 -101 45 -61 50 -84 19 -86 -16 -1
-19 1 -11 9 7 7 4 18 -11 36 -31 36 -69 72 -77 72 -13 0 -91 -61 -96 -75 -3
-7 -1 -39 6 -69 l11 -55 47 15 c72 23 112 28 112 15 0 -6 -7 -11 -16 -11 -8 0
-13 -4 -10 -9 3 -5 -12 -11 -34 -14 -21 -3 -49 -14 -61 -26 -21 -19 -22 -23
-9 -62 22 -65 37 -78 100 -81 l55 -3 3 34 c2 20 -2 37 -10 42 -9 6 -10 11 -2
17 15 10 24 51 13 58 -5 3 -9 9 -9 15 0 5 9 4 19 -3 15 -9 19 -22 17 -62 -1
-28 4 -63 11 -78 12 -25 19 -28 67 -28 38 0 57 5 69 18 16 18 47 84 47 101 0
5 -24 15 -52 22 -51 12 -97 36 -98 52 0 4 14 7 30 7 17 0 30 -4 30 -10 0 -14
61 -28 89 -20 25 6 49 52 50 99 1 28 -55 87 -92 96 -34 9 -78 -22 -71 -50 4
-15 -2 -23 -26 -32 -41 -15 -39 -3 10 69 23 32 38 63 35 68 -7 12 -50 35 -80
43 -11 3 -36 -3 -56 -13z m36 -210 c3 -5 1 -10 -4 -10 -6 0 -11 5 -11 10 0 6
2 10 4 10 3 0 8 -4 11 -10z m-38 -42 c-3 -8 -6 -5 -6 6 -1 11 2 17 5 13 3 -3
4 -12 1 -19z"></path>
<path d="M12035 16573 c-11 -3 -31 -10 -45 -16 -14 -5 -32 -11 -40 -11 -8 -1
-24 -20 -35 -42 -19 -40 -22 -42 -85 -52 l-65 -10 75 1 c41 0 98 -3 125 -7 40
-7 53 -5 64 7 7 9 19 13 27 10 8 -3 14 0 14 6 0 6 4 11 10 11 15 0 60 42 60
57 0 7 -9 22 -20 33 -19 19 -44 23 -85 13z"></path>
<path d="M4218 16558 c-35 -29 -26 -82 16 -90 28 -6 28 -6 40 70 5 28 3 32
-17 32 -13 0 -30 -6 -39 -12z m19 -70 c-3 -8 -6 -5 -6 6 -1 11 2 17 5 13 3 -3
4 -12 1 -19z"></path>
<path d="M13721 16553 c-15 -13 -19 -25 -15 -40 8 -28 14 -28 65 -2 l40 20
-24 20 c-31 23 -39 24 -66 2z"></path>
<path d="M4295 16540 c-3 -5 -3 -15 0 -20 4 -6 1 -18 -7 -27 -12 -14 -11 -15
7 -5 48 27 50 29 36 46 -15 18 -27 20 -36 6z"></path>
<path d="M7001 16415 c0 -78 6 -194 14 -260 8 -65 13 -120 12 -121 -2 -2 -217
-68 -366 -113 -13 -4 -28 -17 -32 -29 -8 -20 0 -28 74 -76 45 -29 112 -65 148
-79 68 -27 190 -59 197 -52 11 11 -15 25 -80 45 -117 36 -291 132 -271 150 4
5 53 23 108 40 111 36 281 99 338 126 67 32 39 47 -33 18 -23 -9 -43 -14 -46
-11 -11 10 -44 245 -52 372 l-9 130 -2 -140z"></path>
<path d="M6012 16492 c-29 -32 -70 -127 -59 -138 2 -3 12 8 22 23 10 15 38 48
62 74 26 28 41 52 38 61 -9 24 -31 17 -63 -20z"></path>
<path d="M6080 16519 c0 -5 5 -7 10 -4 6 3 10 8 10 11 0 2 -4 4 -10 4 -5 0
-10 -5 -10 -11z"></path>
<path d="M13580 16516 c0 -7 -11 -30 -25 -50 -14 -21 -24 -43 -23 -49 2 -7
-21 -34 -50 -61 -29 -27 -69 -72 -89 -100 -20 -28 -45 -58 -56 -67 -36 -29 8
-31 144 -4 104 20 308 51 584 88 17 3 -13 2 -65 0 -100 -5 -445 -46 -543 -65
-32 -6 -60 -8 -63 -5 -10 10 26 65 80 124 52 56 57 59 125 71 39 7 89 12 111
12 21 0 42 5 46 11 11 18 -18 30 -59 23 -34 -5 -38 -4 -35 13 1 11 -6 32 -16
48 -18 27 -19 28 -32 10 -12 -17 -14 -17 -14 -2 0 9 -4 17 -10 17 -5 0 -10 -6
-10 -14z"></path>
<path d="M4111 16511 c-19 -12 3 -51 29 -51 23 0 23 0 10 34 -10 28 -17 31
-39 17z"></path>
<path d="M7313 16480 c-45 -27 -45 -32 -13 -83 26 -41 27 -47 12 -59 -13 -11
-15 -11 -10 3 7 19 -49 79 -73 79 -8 0 -28 -13 -44 -29 -23 -25 -27 -36 -22
-67 3 -20 9 -39 12 -42 2 -3 30 1 60 8 44 11 58 11 68 1 9 -10 8 -11 -5 -6
-11 4 -18 2 -18 -4 0 -6 -11 -11 -24 -11 -13 0 -34 -8 -46 -18 -21 -17 -22
-22 -11 -54 14 -43 25 -53 66 -61 43 -8 54 2 53 51 0 24 2 46 6 49 3 3 0 13
-7 21 -10 13 -9 14 9 2 15 -9 19 -20 16 -41 -10 -68 22 -98 88 -84 34 8 71 82
48 96 -12 8 -44 12 -50 7 -4 -3 -48 36 -48 42 0 3 9 6 20 6 11 0 20 -4 20 -8
0 -14 70 -21 85 -8 20 16 29 73 16 98 -6 11 -26 27 -45 36 -29 14 -39 14 -56
4 -11 -7 -20 -20 -20 -28 0 -8 -9 -21 -20 -28 -28 -17 -25 -4 11 52 16 27 29
49 27 50 -2 2 -19 12 -39 24 -35 21 -35 21 -66 2z"></path>
<path d="M13770 16485 l-24 -14 24 -9 c20 -7 26 -6 32 7 14 35 9 38 -32 16z"></path>
<path d="M6108 16451 c-29 -19 -77 -59 -105 -87 -34 -34 -55 -48 -60 -41 -19
31 -30 -104 -12 -150 8 -23 7 -30 -8 -40 -53 -38 -147 -143 -169 -189 -31 -64
-44 -139 -23 -132 7 2 17 24 21 47 12 71 48 132 119 204 59 59 72 67 104 67
57 0 217 89 163 90 -7 0 -4 6 7 12 29 16 76 68 70 78 -3 5 0 10 6 12 20 7 24
104 6 132 -25 38 -58 38 -119 -3z"></path>
<path d="M4301 16449 c-12 -16 -21 -35 -21 -44 0 -17 -16 -20 -25 -5 -6 10
-85 14 -85 4 0 -3 5 -14 11 -25 10 -19 9 -19 -10 -9 -20 10 -31 -2 -12 -14 5
-3 18 -26 30 -50 11 -24 28 -47 38 -50 13 -4 23 -28 36 -83 30 -135 105 -286
199 -403 l47 -59 -52 -11 c-29 -6 -95 -14 -149 -17 -94 -6 -96 -6 -101 -32 -3
-14 -4 -28 -2 -29 6 -6 197 17 255 30 46 11 55 16 67 47 14 32 13 36 -6 51
-12 8 -29 27 -39 42 -9 14 -41 61 -71 103 -65 94 -112 195 -136 290 l-18 70
32 77 c18 42 39 82 47 89 18 15 18 56 0 56 -8 0 -24 -13 -35 -28z"></path>
<path d="M7565 16469 c-4 -6 -5 -12 -2 -15 2 -3 7 2 10 11 7 17 1 20 -8 4z"></path>
<path d="M6780 16280 c-13 -8 -13 -13 3 -41 26 -47 20 -57 -12 -19 l-30 35
-21 -21 c-16 -15 -20 -28 -15 -43 6 -19 11 -21 42 -15 26 5 34 4 29 -5 -4 -6
-16 -11 -26 -11 -26 0 -32 -14 -19 -44 8 -17 20 -26 36 -26 19 0 23 5 23 30 0
17 5 30 10 30 6 0 10 -13 10 -30 0 -27 3 -30 30 -30 18 0 33 7 39 18 12 22 3
37 -26 46 -13 4 -23 12 -23 17 0 6 7 6 19 -1 32 -16 48 -12 55 16 5 18 2 32
-10 45 -22 25 -38 24 -57 -3 -9 -13 -16 -18 -16 -11 -1 6 4 15 9 18 16 10 12
42 -6 49 -21 8 -26 7 -44 -4z"></path>
<path d="M5096 16204 c-40 -91 -94 -172 -160 -238 -60 -59 -64 -66 -42 -66 20
0 114 106 155 174 31 53 86 185 78 192 -1 2 -16 -26 -31 -62z"></path>
<path d="M7881 16194 c-26 -44 -26 -56 -1 -79 20 -18 21 -18 50 16 34 40 36
51 13 71 -34 29 -41 28 -62 -8z"></path>
<path d="M8453 16196 l-23 -11 20 -33 c27 -44 25 -52 -5 -19 -30 32 -43 34
-61 10 -27 -36 -18 -53 29 -54 l42 -1 -32 -9 c-51 -15 -38 -67 18 -76 15 -2
19 3 19 27 0 17 5 30 11 30 6 0 8 -8 4 -19 -6 -21 17 -44 41 -39 9 2 23 13 32
26 14 21 13 23 -17 33 -17 6 -31 15 -31 20 0 11 3 11 35 -1 22 -8 27 -7 37 15
9 21 8 28 -7 45 -21 23 -55 27 -55 5 0 -8 -5 -15 -10 -15 -7 0 -7 6 0 19 14
28 13 39 -8 50 -11 6 -25 5 -39 -3z"></path>
<path d="M10260 16152 c-23 -18 -23 -19 -4 -48 10 -16 22 -32 27 -35 5 -4 4
-10 -3 -14 -6 -4 -12 -5 -14 -4 -1 2 -10 16 -19 32 -31 49 -97 23 -97 -39 0
-42 16 -50 64 -34 20 6 41 8 48 4 7 -5 -7 -14 -37 -23 -46 -15 -50 -19 -48
-45 3 -41 31 -68 67 -64 32 3 32 3 35 76 2 37 19 16 19 -22 0 -47 8 -56 48
-56 28 0 38 6 54 33 19 30 19 33 3 45 -9 6 -23 12 -31 12 -15 0 -47 28 -40 36
3 2 19 -3 36 -12 46 -22 65 -15 75 29 8 33 6 42 -14 63 -29 31 -67 32 -78 0
-5 -13 -17 -26 -25 -29 -22 -9 -20 -2 9 41 31 45 31 46 0 60 -35 16 -49 15
-75 -6z"></path>
<path d="M11318 16149 c-23 -13 -23 -24 0 -57 27 -40 34 -62 16 -55 -7 3 -14
11 -14 17 0 15 -42 56 -56 56 -6 0 -21 -11 -33 -24 -18 -19 -22 -31 -16 -56 7
-33 5 -33 73 -14 36 10 25 -11 -13 -25 -58 -21 -43 -82 23 -95 32 -5 32 -5 32
34 0 21 5 42 10 45 6 4 10 -8 10 -29 0 -43 21 -57 66 -45 54 15 53 61 -2 79
-19 6 -34 16 -34 21 0 12 24 11 37 -2 21 -21 57 -6 67 28 8 29 6 36 -18 60
-24 23 -29 25 -50 13 -14 -7 -27 -22 -31 -34 -3 -11 -9 -16 -11 -10 -3 7 4 27
15 45 19 30 19 33 3 45 -20 16 -51 17 -74 3z"></path>
<path d="M13105 16116 c-105 -43 -215 -99 -296 -151 l-65 -42 -115 18 c-177
29 -334 48 -454 54 -216 12 -350 36 -612 111 -20 6 -22 3 -17 -28 3 -18 -1
-67 -10 -108 -8 -41 -18 -109 -22 -150 l-6 -75 54 -12 c76 -18 100 -17 96 4
-2 12 -18 21 -51 27 -41 7 -47 11 -47 33 0 28 39 225 46 232 2 2 52 -7 112
-22 155 -38 216 -46 417 -57 286 -16 594 -59 869 -120 161 -36 164 -36 142
-11 -17 19 -164 60 -274 77 -23 4 -45 10 -47 14 -12 19 215 145 246 137 12 -3
23 2 29 12 5 10 30 26 55 35 48 19 81 57 48 55 -10 0 -54 -15 -98 -33z"></path>
<path d="M8025 16106 c-16 -7 -38 -22 -47 -33 -17 -19 -17 -22 0 -61 9 -23 20
-42 25 -42 12 0 147 69 147 76 0 3 -12 21 -27 40 -30 37 -51 41 -98 20z m5
-76 c-20 -13 -40 -13 -40 0 0 6 12 10 28 10 21 0 24 -2 12 -10z"></path>
<path d="M13857 16102 c-15 -16 -15 -20 3 -47 22 -33 26 -55 10 -55 -5 0 -10
5 -10 12 0 6 -9 22 -21 34 -18 19 -25 21 -45 12 -25 -12 -39 -43 -32 -75 4
-19 21 -21 78 -8 31 7 33 6 21 -9 -7 -9 -24 -16 -36 -16 -36 0 -50 -24 -35
-60 20 -49 93 -55 89 -8 -3 37 0 58 10 58 6 0 11 -19 13 -42 3 -41 4 -43 39
-46 30 -3 37 1 47 23 18 38 15 43 -23 59 -19 8 -35 20 -35 26 0 7 6 8 19 0 38
-20 68 -12 82 21 12 30 11 33 -20 61 -37 33 -51 32 -69 -5 -7 -15 -17 -27 -23
-27 -14 0 -11 12 11 40 26 33 25 45 -5 58 -35 16 -49 15 -68 -6z"></path>
<path d="M13252 16094 l-22 -15 22 -32 c13 -18 24 -41 24 -52 1 -19 1 -19 -10
-1 -26 44 -53 69 -69 63 -27 -10 -49 -52 -41 -81 6 -24 10 -26 38 -20 17 4 42
8 55 10 33 4 12 -15 -25 -22 -45 -8 -55 -21 -42 -52 17 -38 22 -43 57 -48 30
-5 31 -4 31 35 0 22 5 43 10 46 6 4 10 -7 10 -27 0 -44 9 -55 45 -53 42 3 41
2 53 30 16 35 17 33 -28 51 -22 9 -40 20 -40 25 0 12 17 11 25 -1 3 -5 20 -10
36 -10 59 0 63 85 4 112 -26 12 -55 -2 -55 -27 0 -7 -7 -16 -16 -19 -12 -4
-10 4 8 35 22 40 22 41 3 55 -25 18 -45 18 -73 -2z"></path>
<path d="M8351 16054 c0 -11 3 -14 6 -6 3 7 2 16 -1 19 -3 4 -6 -2 -5 -13z"></path>
<path d="M10798 16044 c-21 -13 -38 -29 -38 -34 0 -5 13 -28 28 -52 31 -47 47
-82 33 -73 -5 3 -12 -1 -14 -7 -3 -7 -6 -3 -6 10 -1 12 -5 22 -11 22 -5 0 -10
5 -10 11 0 17 -49 59 -68 59 -24 0 -92 -68 -92 -91 0 -20 26 -89 33 -89 3 0
24 7 48 16 47 18 88 19 102 5 6 -6 2 -8 -10 -5 -13 4 -22 0 -27 -11 -3 -9 -11
-13 -17 -10 -6 4 -28 -1 -50 -10 -45 -21 -49 -39 -19 -101 17 -35 26 -42 58
-48 74 -12 82 -9 82 28 0 19 -6 37 -12 40 -10 5 -10 7 0 12 6 3 12 17 12 30 0
14 6 24 14 24 10 0 14 -15 13 -61 0 -71 7 -79 74 -79 47 0 59 8 87 57 21 39
15 61 -20 69 -18 5 -37 9 -43 9 -9 0 -55 39 -55 47 0 10 46 3 55 -9 6 -7 29
-15 52 -19 42 -6 43 -6 58 29 25 61 20 90 -25 131 -22 20 -46 36 -54 36 -19 0
-66 -49 -60 -63 4 -13 -43 -40 -50 -28 -2 3 13 33 35 65 43 64 42 74 -12 102
-37 19 -47 17 -91 -12z"></path>
<path d="M7768 16040 c-4 -8 -12 -32 -18 -52 -6 -20 -24 -55 -41 -77 -16 -23
-29 -52 -29 -65 0 -20 -9 -27 -57 -44 -68 -25 -222 -68 -275 -78 -21 -3 -43
-13 -50 -21 -11 -14 -10 -15 7 -10 11 3 52 13 90 23 39 9 121 34 183 56 102
36 114 38 128 24 8 -9 16 -16 17 -16 1 0 36 9 77 20 42 11 108 20 151 20 80 0
139 14 139 33 -1 33 -20 42 -87 42 -37 0 -75 -3 -82 -5 -11 -4 -15 5 -16 34
-1 22 -6 41 -13 44 -7 2 -12 8 -12 13 0 14 -33 49 -47 49 -7 0 -17 -9 -24 -21
-12 -24 -25 -16 -31 21 -3 17 -6 20 -10 10z"></path>
<path d="M10510 16020 c0 -15 27 -23 47 -16 15 6 15 8 3 16 -20 13 -50 12 -50
0z"></path>
<path d="M8107 15976 c-4 -10 -19 -16 -38 -16 -40 0 -37 -3 32 -34 l55 -24 2
30 c1 16 3 35 5 41 3 19 -49 21 -56 3z"></path>
<path d="M9200 15950 c-6 -11 -8 -20 -6 -20 3 0 10 9 16 20 6 11 8 20 6 20 -3
0 -10 -9 -16 -20z"></path>
<path d="M4658 15926 c-23 -17 -23 -20 7 -63 23 -35 25 -53 4 -53 -6 0 -8 4
-4 10 3 5 -7 23 -23 41 -28 32 -29 32 -55 14 -28 -18 -42 -50 -35 -82 4 -19
31 -22 81 -8 23 6 26 5 21 -9 -3 -9 -17 -16 -29 -16 -38 0 -56 -25 -43 -60 12
-34 39 -53 71 -48 18 2 22 10 24 46 2 73 24 73 27 0 1 -41 3 -43 33 -46 63 -6
103 72 43 84 -16 4 -35 13 -42 22 -14 16 -14 16 65 -4 18 -4 26 0 35 21 18 38
15 59 -12 84 -30 29 -70 25 -74 -6 -2 -15 -10 -23 -23 -23 -19 0 -18 2 6 38
l26 37 -22 18 c-25 20 -57 22 -81 3z"></path>
<path d="M6475 15930 c-3 -6 -3 -19 0 -31 7 -20 -3 -104 -11 -96 -2 2 -6 27
-8 55 -6 67 -11 74 -53 69 -42 -6 -51 -14 -62 -55 -9 -30 -8 -32 17 -38 53
-12 62 -15 62 -26 0 -5 -7 -7 -16 -4 -61 23 -84 15 -90 -35 -9 -61 63 -105 83
-52 4 10 15 27 25 37 14 15 18 16 18 5 0 -8 -7 -24 -15 -35 -21 -28 -18 -61 7
-78 31 -22 52 -20 84 7 l27 23 -25 25 c-31 32 -42 59 -23 59 8 0 15 -4 15 -8
0 -15 37 -52 52 -52 23 0 58 44 58 72 0 38 -31 72 -58 64 -12 -4 -22 -12 -22
-17 0 -5 -9 -9 -20 -9 -32 0 -23 16 20 35 46 21 51 41 17 73 -24 23 -71 30
-82 12z"></path>
<path d="M13447 15928 c-16 -10 173 -8 243 2 41 6 17 7 -88 6 -79 0 -149 -4
-155 -8z"></path>
<path d="M11752 15917 c-7 -8 -6 -19 3 -37 22 -39 17 -48 -8 -16 -20 25 -26
27 -45 17 -15 -8 -22 -21 -22 -41 0 -30 1 -30 43 -25 l42 5 -32 -15 c-50 -23
-39 -75 15 -75 16 0 23 5 21 18 -3 29 1 46 8 38 4 -4 8 -17 8 -29 0 -17 7 -23
33 -25 17 -2 32 1 32 7 0 5 3 17 6 25 5 12 -2 19 -25 27 -17 6 -31 15 -31 20
0 12 6 11 29 -3 27 -17 51 -3 51 29 0 31 -30 56 -55 47 -11 -5 -14 -2 -9 11
12 30 -42 49 -64 22z m58 -57 c0 -5 -5 -10 -11 -10 -5 0 -7 5 -4 10 3 6 8 10
11 10 2 0 4 -4 4 -10z"></path>
<path d="M9110 15895 c-10 -12 -9 -20 4 -40 26 -40 18 -48 -13 -13 l-30 33
-20 -20 c-14 -14 -19 -27 -14 -43 5 -21 10 -23 40 -17 24 4 33 3 28 -4 -3 -6
-12 -11 -18 -11 -28 -1 -38 -16 -28 -43 14 -37 61 -39 61 -3 0 14 5 28 10 31
6 4 10 -7 10 -24 0 -28 3 -31 30 -31 23 0 33 6 39 23 8 19 4 24 -20 35 -16 6
-29 17 -29 22 0 7 6 7 19 0 32 -17 50 -12 57 17 5 20 2 30 -15 44 -12 10 -29
15 -38 12 -11 -4 -14 -3 -9 6 5 7 0 18 -10 26 -25 19 -39 18 -54 0z m60 -55
c0 -5 -5 -10 -11 -10 -5 0 -7 5 -4 10 3 6 8 10 11 10 2 0 4 -4 4 -10z"></path>
<path d="M3829 15852 c-8 -4 -28 -17 -43 -29 l-28 -23 24 -32 c22 -29 58 -91
58 -100 0 -2 -10 -5 -22 -5 -13 -1 -18 1 -11 5 8 5 -2 23 -31 56 -36 42 -46
48 -68 43 -45 -12 -88 -60 -88 -101 0 -36 18 -86 30 -86 4 0 27 7 51 16 52 19
116 24 116 8 0 -6 -11 -9 -24 -6 -16 3 -23 0 -21 -9 2 -8 -9 -13 -29 -15 -43
-2 -83 -29 -83 -55 0 -32 26 -85 51 -103 29 -20 107 -22 115 -3 3 8 1 25 -5
38 -6 17 -5 38 2 62 17 53 34 47 30 -10 -1 -27 2 -60 8 -75 11 -26 16 -28 69
-28 65 0 83 13 105 77 14 38 13 38 -17 51 -18 8 -41 14 -52 15 -11 1 -30 11
-43 23 l-23 22 25 4 c16 4 29 0 34 -9 5 -9 26 -15 56 -16 43 -2 51 1 61 23 7
14 14 42 17 62 4 34 1 41 -33 72 -55 49 -79 54 -107 22 -12 -14 -20 -32 -17
-40 3 -8 -4 -16 -20 -20 -14 -3 -26 -11 -26 -16 0 -6 -5 -10 -10 -10 -12 0 23
72 57 117 l24 31 -34 26 c-33 25 -66 31 -98 18z m-49 -172 c0 -5 -4 -10 -10
-10 -5 0 -10 5 -10 10 0 6 5 10 10 10 6 0 10 -4 10 -10z m70 -50 c0 -5 -5 -10
-11 -10 -5 0 -7 5 -4 10 3 6 8 10 11 10 2 0 4 -4 4 -10z m50 -130 c0 -5 -7 -7
-15 -4 -8 4 -15 8 -15 10 0 2 7 4 15 4 8 0 15 -4 15 -10z"></path>
<path d="M5843 15819 c-24 -17 -43 -32 -43 -34 0 -12 78 -113 84 -108 3 3 6 4
6 0 0 -9 -31 -37 -41 -37 -6 0 -9 7 -7 15 4 19 -27 64 -58 88 -24 18 -26 18
-52 2 -73 -47 -84 -75 -61 -146 7 -19 13 -35 14 -37 1 -1 28 7 60 18 71 25 89
25 106 3 12 -16 12 -17 -2 -5 -13 10 -19 9 -29 -3 -7 -8 -18 -14 -24 -13 -17
3 -56 -12 -77 -30 -25 -21 -24 -48 4 -97 19 -34 29 -41 69 -49 25 -5 53 -6 62
-3 18 7 22 62 6 72 -8 5 -7 11 1 21 6 8 9 27 7 44 -5 31 5 40 18 18 5 -7 9
-36 10 -65 4 -87 8 -93 67 -93 58 0 86 17 105 63 21 49 16 63 -29 76 -23 7
-43 10 -46 8 -4 -5 -53 36 -53 44 0 10 56 3 65 -8 14 -18 91 -26 102 -10 5 6
15 31 23 55 11 36 11 46 -1 68 -15 30 -75 74 -100 74 -21 0 -61 -44 -54 -61 3
-9 -8 -20 -30 -31 l-34 -17 10 26 c6 15 25 49 44 75 l35 47 -33 24 c-51 39
-76 40 -124 6z m47 -209 c0 -5 -2 -10 -4 -10 -3 0 -8 5 -11 10 -3 6 -1 10 4
10 6 0 11 -4 11 -10z m47 -126 c-3 -3 -12 -4 -19 -1 -8 3 -5 6 6 6 11 1 17 -2
13 -5z"></path>
<path d="M7134 15815 c-4 -8 1 -26 10 -40 20 -30 16 -31 -14 -5 -29 25 -35 25
-53 -1 -26 -36 -15 -54 29 -51 l39 2 -32 -14 c-35 -16 -39 -26 -23 -57 15 -26
60 -26 60 1 0 11 4 20 9 20 5 0 11 -9 14 -20 6 -22 36 -27 55 -8 16 16 15 48
-2 48 -7 0 -19 7 -26 15 -15 18 -10 18 25 5 22 -8 27 -7 37 15 9 21 8 28 -7
45 -23 26 -41 25 -55 -1 -16 -30 -23 -17 -8 15 10 23 9 29 -3 37 -22 14 -49
11 -55 -6z"></path>
<path d="M10414 15824 c-8 -3 -2 -29 17 -77 34 -87 34 -93 9 -153 -12 -26 -19
-55 -17 -63 2 -10 13 4 26 33 12 28 25 45 30 40 5 -5 18 -35 30 -66 29 -81 93
-205 98 -191 2 6 -6 31 -18 55 -12 24 -50 128 -84 232 -34 105 -66 191 -71
192 -5 1 -14 0 -20 -2z"></path>
<path d="M13232 15786 c-25 -8 -34 -18 -42 -46 -13 -50 -40 -215 -40 -244 0
-15 -11 -33 -27 -46 -25 -19 -26 -20 -5 -15 22 6 22 6 23 -107 0 -62 6 -131
13 -153 12 -38 12 -36 8 38 -3 55 -1 77 7 77 24 0 60 -50 76 -104 18 -60 41
-68 30 -10 -4 22 -2 34 5 34 6 0 19 7 27 16 14 13 14 17 2 25 -10 6 -10 9 -1
9 6 0 12 4 12 9 0 10 -53 22 -96 22 -17 -1 -39 5 -49 13 -18 13 -19 20 -7 112
16 129 70 354 85 354 7 0 51 -11 99 -24 72 -20 89 -22 98 -11 9 11 4 16 -27
24 -21 6 -60 17 -88 26 -56 17 -57 17 -103 1z"></path>
<path d="M6223 15772 c-10 -6 -10 -12 2 -28 14 -18 14 -18 15 9 0 30 0 30 -17
19z"></path>
<path d="M12932 15728 c-17 -17 -15 -25 9 -59 11 -16 18 -33 15 -38 -4 -5 0
-12 6 -14 10 -4 10 -6 0 -6 -7 -1 -16 9 -21 22 -5 12 -18 31 -30 41 -19 17
-24 18 -46 6 -30 -16 -41 -50 -26 -78 9 -18 16 -19 43 -11 41 11 48 11 48 0 0
-5 -14 -11 -30 -15 -53 -10 -53 -74 -1 -96 35 -14 53 -6 50 23 -3 44 1 68 11
62 6 -3 10 -23 10 -45 0 -31 4 -39 23 -44 31 -7 64 3 71 22 3 10 9 22 12 29 3
7 -9 18 -29 27 -46 19 -61 42 -21 31 57 -15 67 -12 78 24 9 31 7 36 -18 58
-33 28 -57 27 -71 -5 -5 -12 -16 -22 -23 -22 -9 0 -6 10 9 31 17 24 20 36 12
48 -13 20 -64 26 -81 9z"></path>
<path d="M11775 15700 c3 -5 8 -10 11 -10 2 0 4 5 4 10 0 6 -5 10 -11 10 -5 0
-7 -4 -4 -10z"></path>
<path d="M11850 15682 c0 -5 11 -13 25 -16 14 -4 25 -12 25 -19 0 -6 18 -50
41 -97 23 -47 47 -96 53 -109 6 -14 16 -26 22 -28 21 -7 23 41 4 85 -23 52
-24 55 -7 49 18 -6 68 49 61 68 -3 8 -11 15 -17 15 -6 0 -2 6 8 14 16 12 13
14 -36 20 -30 4 -72 9 -94 11 -22 2 -50 7 -62 10 -14 4 -23 3 -23 -3z"></path>
<path d="M13632 15673 c2 -13 16 -20 45 -24 23 -3 50 -12 60 -21 10 -9 45 -29
79 -46 34 -17 75 -42 92 -57 48 -41 171 -208 169 -230 -1 -13 4 -20 17 -20 10
0 33 -18 52 -40 39 -46 46 -30 9 19 -31 41 -26 44 87 53 43 3 81 10 84 15 5 8
-31 12 -68 9 -10 -1 -18 4 -18 12 0 15 52 41 109 55 51 12 55 37 5 29 -34 -6
-41 -3 -49 15 -6 12 -20 22 -32 23 -17 1 -23 -7 -33 -44 -20 -77 -28 -91 -54
-91 -13 0 -37 -3 -54 -6 -29 -6 -34 -1 -115 107 -95 127 -123 149 -285 219
-51 22 -95 40 -98 40 -3 0 -4 -8 -2 -17z"></path>
<path d="M8986 15620 c-26 -33 -59 -68 -73 -77 -16 -11 -21 -19 -14 -26 7 -7
17 -4 32 9 36 32 111 134 107 145 -2 6 -25 -17 -52 -51z"></path>
<path d="M13487 15657 l-36 -20 30 -43 c32 -48 36 -64 14 -64 -8 0 -14 4 -12
9 4 14 -42 71 -58 71 -7 0 -28 -12 -45 -27 -27 -22 -31 -31 -26 -57 4 -17 7
-37 8 -43 2 -16 6 -16 58 2 27 10 48 12 58 6 14 -8 11 -11 -13 -17 -49 -11
-85 -33 -85 -52 0 -9 9 -32 20 -49 17 -28 25 -33 60 -33 l40 0 0 43 c0 63 2
76 15 71 6 -3 9 -19 7 -38 -6 -53 12 -76 58 -76 31 0 43 5 59 29 28 39 26 57
-6 67 -53 15 -73 24 -73 35 0 13 34 11 47 -2 6 -6 25 -9 44 -7 27 2 34 8 41
33 11 42 1 69 -34 95 -33 25 -52 21 -72 -15 -12 -22 -39 -45 -45 -40 -2 2 9
25 24 50 31 53 28 68 -13 83 -23 8 -36 6 -65 -11z"></path>
<path d="M11480 15643 c-14 -9 -27 -18 -29 -19 -2 -2 8 -22 23 -45 16 -23 25
-48 21 -57 -4 -12 -10 -7 -24 18 -10 19 -27 40 -38 47 -18 12 -24 11 -52 -12
-23 -20 -31 -35 -31 -58 0 -51 11 -60 56 -48 56 16 79 15 65 -3 -6 -7 -23 -13
-36 -13 -50 0 -69 -41 -42 -93 22 -44 119 -46 102 -2 -7 20 5 82 16 82 5 0 9
-25 9 -55 0 -59 1 -60 65 -56 35 2 65 33 65 67 0 18 -7 24 -34 30 -19 3 -43
15 -52 25 -17 19 -17 19 2 16 10 -2 32 -9 47 -15 54 -23 63 -17 73 45 5 35 2
44 -20 67 -15 14 -37 26 -50 26 -24 0 -54 -26 -42 -37 3 -3 -3 -13 -15 -21
-33 -23 -33 -6 1 44 l33 47 -24 18 c-30 23 -57 24 -89 2z"></path>
<path d="M12146 15605 c-9 -24 -8 -25 12 -25 10 0 24 -6 30 -12 10 -10 15 -10
22 2 17 26 6 45 -26 48 -22 2 -33 -2 -38 -13z"></path>
<path d="M7750 15597 c-14 -6 -31 -17 -38 -24 -7 -7 -18 -13 -23 -13 -17 0 -9
-20 27 -70 20 -27 34 -55 32 -62 -4 -12 -15 -3 -77 66 -28 32 -51 28 -98 -17
-36 -34 -42 -69 -22 -126 9 -24 16 -30 28 -25 83 34 158 43 158 19 0 -18 -14
-20 -19 -4 -3 8 -10 6 -21 -5 -9 -10 -23 -16 -30 -13 -6 2 -29 -5 -49 -16 -42
-23 -47 -45 -24 -102 16 -37 35 -50 86 -59 50 -7 63 4 58 50 -3 22 -1 46 3 54
4 8 10 24 14 34 9 29 14 16 19 -52 2 -34 9 -69 16 -77 17 -20 89 -19 119 1 23
16 51 70 51 97 0 13 -77 43 -87 34 -4 -5 -53 39 -53 48 0 7 49 -2 62 -12 7 -6
31 -13 54 -16 35 -6 42 -4 52 16 26 51 31 76 21 106 -11 30 -73 81 -101 81
-24 0 -61 -37 -54 -55 5 -14 -27 -35 -55 -35 -8 0 25 58 67 116 14 20 13 23
-19 42 -49 28 -68 32 -97 19z m-10 -187 c0 -5 -4 -10 -10 -10 -5 0 -10 5 -10
10 0 6 5 10 10 10 6 0 10 -4 10 -10z m75 -168 c-3 -3 -11 0 -18 7 -9 10 -8 11
6 5 10 -3 15 -9 12 -12z"></path>
<path d="M3351 15571 c-12 -8 -13 -14 -3 -37 16 -34 10 -40 -13 -14 -23 26
-31 25 -50 -4 -22 -34 -10 -57 26 -49 20 4 29 2 29 -7 0 -8 -3 -10 -6 -7 -4 3
-15 2 -26 -4 -32 -17 -7 -68 35 -69 12 0 17 8 17 30 0 17 5 30 10 30 6 0 10
-13 10 -30 0 -25 4 -30 23 -30 47 0 63 44 22 60 -14 5 -25 15 -25 21 0 7 7 8
18 4 43 -18 49 -17 56 10 5 19 2 33 -10 46 -22 25 -41 24 -54 -2 -7 -11 -14
-18 -17 -16 -2 3 3 17 12 30 15 24 15 26 -4 36 -24 13 -32 13 -50 2z"></path>
<path d="M8603 15549 c-18 -12 -33 -23 -33 -24 0 -2 14 -25 31 -50 29 -43 33
-75 9 -75 -6 0 -8 5 -5 10 9 14 -19 55 -50 76 -24 16 -27 15 -60 -10 -30 -23
-35 -33 -35 -69 0 -61 10 -72 51 -59 53 17 85 21 100 11 11 -7 9 -9 -8 -9 -13
0 -23 -5 -23 -11 0 -6 -6 -9 -13 -6 -8 3 -28 -2 -46 -11 -30 -14 -33 -19 -27
-50 8 -51 41 -82 89 -82 37 0 38 1 36 33 -2 38 10 87 22 87 4 0 9 -26 11 -57
l3 -58 54 0 c46 0 56 4 72 25 9 14 20 35 24 47 5 20 1 24 -37 33 -24 6 -54 20
-68 30 -24 19 -24 20 -4 20 12 0 35 -7 50 -15 35 -18 68 -19 82 -2 5 6 13 31
17 53 6 38 4 44 -27 73 -18 17 -42 31 -54 31 -28 0 -58 -24 -52 -41 4 -9 -4
-19 -18 -26 -31 -15 -30 -7 6 50 17 26 30 51 30 55 0 10 -59 42 -78 42 -9 0
-32 -10 -49 -21z"></path>
<path d="M14287 15535 c-8 -19 13 -31 23 -14 9 14 4 29 -10 29 -4 0 -10 -7
-13 -15z"></path>
<path d="M12110 15521 c0 -6 5 -13 10 -16 6 -3 10 -12 10 -18 0 -7 -7 -4 -14
6 -7 9 -18 17 -25 17 -22 0 -10 -27 29 -65 l40 -39 15 38 c16 38 12 55 -20 78
-14 11 -45 10 -45 -1z"></path>
<path d="M14348 15512 c-8 -9 -13 -25 -11 -34 5 -20 18 -24 28 -8 3 6 13 10
22 10 12 0 13 -3 4 -14 -9 -11 -9 -16 -1 -21 22 -14 31 11 15 42 -19 38 -39
47 -57 25z"></path>
<path d="M10331 15501 c-11 -7 -11 -13 3 -32 26 -37 20 -59 -7 -25 -20 25 -26
27 -45 17 -13 -7 -22 -21 -22 -35 0 -31 7 -36 41 -26 35 10 38 -2 4 -18 -31
-14 -33 -47 -4 -62 30 -17 47 -6 52 32 l4 33 1 -33 c2 -38 22 -50 58 -34 32
15 32 48 -1 56 -37 10 -30 23 10 18 33 -4 35 -2 35 25 0 49 -47 73 -69 36 -6
-10 -11 -15 -11 -10 0 4 6 16 13 27 10 17 9 22 -3 30 -19 12 -41 12 -59 1z"></path>
<path d="M7235 15456 c-18 -13 -18 -15 -2 -39 24 -37 21 -44 -7 -18 -37 35
-86 10 -69 -35 4 -11 15 -15 34 -12 36 6 38 -5 4 -20 -27 -12 -25 -36 3 -59
25 -20 40 -15 45 15 4 26 4 26 12 5 10 -30 60 -32 75 -4 13 26 13 31 -3 31 -7
0 -22 7 -33 15 -17 13 -16 14 18 8 34 -5 38 -3 44 21 7 31 -9 56 -38 56 -10 0
-21 -7 -24 -15 -4 -8 -10 -15 -15 -15 -5 0 -4 9 3 20 9 15 10 25 2 37 -15 23
-27 26 -49 9z"></path>
<path d="M12070 15423 c0 -44 10 -52 39 -34 8 5 11 16 7 26 -3 10 -10 15 -13
11 -4 -4 -13 4 -20 16 -11 22 -12 20 -13 -19z"></path>
<path d="M13028 15389 l-33 -31 40 28 c22 16 42 29 44 31 2 2 -1 3 -7 3 -7 0
-26 -14 -44 -31z"></path>
<path d="M10686 15345 c-18 -14 -18 -15 6 -47 14 -18 23 -39 20 -46 -3 -9 -11
-2 -23 18 -11 17 -26 33 -35 37 -20 7 -64 -34 -64 -61 0 -39 12 -46 54 -35 57
16 67 5 13 -16 -44 -17 -48 -21 -42 -44 9 -36 26 -51 61 -54 25 -2 29 2 30 23
2 52 4 60 14 60 6 0 10 -17 10 -39 0 -35 3 -39 31 -45 37 -7 45 -3 64 35 l15
29 -40 16 c-22 9 -40 20 -40 25 0 12 27 11 35 -1 3 -5 17 -10 30 -10 17 0 26
8 34 30 12 37 8 49 -25 73 -28 21 -54 16 -61 -12 -3 -11 -11 -22 -19 -25 -19
-7 -18 1 8 36 16 23 19 35 11 47 -13 21 -63 25 -87 6z"></path>
<path d="M4070 15316 c0 -25 114 -169 190 -239 92 -85 176 -127 254 -127 54 0
58 -2 151 -76 52 -42 95 -80 95 -85 0 -5 20 -29 44 -54 33 -32 50 -42 65 -38
12 3 21 12 21 20 0 25 -53 100 -82 118 -33 19 -35 31 -9 38 21 5 57 106 47
132 -5 13 -45 12 -70 -2 -6 -3 2 8 18 25 16 18 28 34 25 36 -2 3 -23 -4 -47
-14 -23 -10 -70 -22 -103 -26 -54 -6 -64 -11 -78 -35 -13 -24 -22 -29 -56 -29
-123 2 -266 110 -407 311 -42 59 -58 71 -58 45z"></path>
<path d="M14435 15310 c3 -5 13 -10 21 -10 8 0 20 -12 26 -27 11 -28 12 -28
16 -5 2 16 8 22 19 18 29 -12 63 -18 63 -12 0 5 -124 46 -142 46 -5 0 -6 -4
-3 -10z"></path>
<path d="M2715 15299 c-11 -5 -33 -19 -48 -32 l-29 -24 35 -49 c46 -64 53 -89
28 -91 -12 -1 -18 3 -15 11 2 6 -12 31 -32 55 -33 38 -41 42 -68 37 -41 -8
-86 -53 -86 -85 0 -26 18 -101 24 -101 2 0 23 7 47 16 54 20 129 25 129 8 0
-7 -10 -9 -25 -6 -17 3 -25 0 -23 -8 2 -7 -11 -13 -34 -15 -41 -4 -78 -31 -78
-56 0 -24 26 -84 43 -98 8 -6 37 -14 65 -18 44 -5 51 -3 56 14 4 11 2 32 -3
47 -6 14 -7 26 -2 26 5 0 11 16 13 35 2 19 0 35 -6 35 -5 0 -6 3 -3 6 4 4 13
1 22 -6 11 -9 13 -25 9 -62 -7 -73 12 -98 74 -98 26 0 57 7 69 15 20 14 43 69
43 101 0 10 -63 30 -82 26 -12 -3 -62 48 -54 55 4 4 11 1 15 -6 7 -11 9 -11
13 0 3 10 12 8 33 -9 16 -13 42 -22 62 -22 30 0 36 5 53 43 11 23 20 50 20 60
0 46 -80 115 -119 102 -23 -7 -69 -55 -53 -55 7 0 12 -4 12 -10 0 -5 -6 -10
-14 -10 -8 0 -22 -7 -30 -16 -33 -32 -17 21 23 78 41 59 41 64 1 89 -35 22
-62 27 -85 18z m15 -229 c0 -5 -2 -10 -4 -10 -3 0 -8 5 -11 10 -3 6 -1 10 4
10 6 0 11 -4 11 -10z m47 -126 c-3 -3 -12 -4 -19 -1 -8 3 -5 6 6 6 11 1 17 -2
13 -5z"></path>
<path d="M13867 15293 c-15 -17 -15 -21 -2 -40 8 -12 19 -34 25 -50 8 -23 8
-25 -3 -9 -49 74 -60 79 -100 42 -24 -22 -25 -28 -16 -56 8 -21 16 -29 28 -26
51 15 71 17 71 7 0 -6 -4 -12 -10 -12 -15 -2 -22 -4 -49 -13 -20 -7 -22 -13
-17 -39 9 -42 20 -53 58 -52 28 0 33 4 34 25 2 49 4 60 12 60 4 0 7 -16 8 -36
1 -55 46 -73 84 -32 29 31 26 55 -9 63 -16 3 -36 14 -43 23 -11 14 -11 15 7 7
11 -4 34 -10 51 -12 28 -4 33 -1 42 26 10 28 8 35 -17 63 -30 34 -59 34 -68
-1 -3 -11 -11 -22 -19 -25 -19 -7 -18 1 7 41 24 38 19 50 -27 59 -22 4 -34 1
-47 -13z"></path>
<path d="M9913 15286 c-13 -7 -32 -21 -42 -30 -19 -18 -19 -19 20 -76 37 -54
50 -88 30 -76 -5 4 -11 3 -14 -1 -2 -5 -2 -2 -1 4 3 14 -78 103 -93 103 -16 0
-93 -59 -100 -76 -3 -8 0 -33 6 -57 7 -23 13 -48 13 -55 1 -7 6 -11 12 -9 106
39 157 45 162 19 1 -7 0 -8 -2 -3 -3 5 -14 7 -24 4 -11 -3 -17 -9 -14 -14 3
-5 -6 -8 -19 -7 -27 2 -97 -38 -97 -55 1 -20 36 -91 51 -103 19 -15 71 -24 98
-17 16 4 21 13 21 39 0 19 -4 34 -9 34 -5 0 -2 14 6 31 13 25 13 36 4 51 -10
17 -10 17 9 6 17 -11 21 -22 19 -63 -4 -65 7 -94 37 -101 31 -8 91 1 109 16
15 13 51 98 44 105 -3 2 -27 10 -54 17 -28 7 -56 18 -63 25 -7 7 -18 13 -23
13 -6 0 -8 4 -5 9 7 10 56 12 56 1 0 -13 72 -29 94 -20 22 8 46 64 46 107 0
20 -50 73 -86 91 -32 17 -86 -23 -77 -57 3 -11 -6 -20 -26 -28 -42 -15 -40 -3
10 69 44 65 43 75 -14 103 -35 18 -54 18 -84 1z m-43 -166 c0 -5 -5 -10 -11
-10 -5 0 -7 5 -4 10 3 6 8 10 11 10 2 0 4 -4 4 -10z m130 -186 c0 -2 -7 -4
-15 -4 -8 0 -15 4 -15 10 0 5 7 7 15 4 8 -4 15 -8 15 -10z"></path>
<path d="M11503 15278 c-21 -26 -36 -200 -29 -323 4 -66 7 -153 6 -192 -1 -46
3 -73 9 -73 6 0 11 -11 11 -23 0 -52 75 -103 106 -72 15 14 15 24 5 78 -7 34
-12 73 -13 86 0 18 -11 28 -53 47 l-52 24 -7 69 c-8 93 12 280 40 374 6 20 -9
23 -23 5z"></path>
<path d="M14354 15260 c-34 -13 -37 -28 -15 -59 23 -32 27 -51 11 -51 -5 0
-10 6 -10 13 0 18 -32 47 -53 47 -26 0 -57 -48 -48 -73 8 -19 15 -22 57 -19
53 4 53 -6 1 -23 -27 -9 -32 -15 -30 -39 3 -38 20 -56 54 -56 25 0 29 4 30 28
0 15 4 36 9 47 7 17 9 15 9 -12 1 -51 10 -63 47 -63 23 0 38 7 48 22 24 33 20
42 -25 62 -49 22 -45 33 6 16 45 -15 65 -1 65 46 0 52 -75 91 -87 45 -5 -20
-33 -38 -33 -22 0 5 10 21 22 36 l22 28 -23 18 c-26 21 -27 21 -57 9z"></path>
<path d="M11650 15250 c0 -5 67 -95 150 -200 82 -105 163 -211 180 -235 17
-25 33 -45 36 -45 8 0 -12 32 -100 155 -76 106 -84 121 -68 130 9 5 70 10 134
10 72 0 108 3 95 8 -29 11 -171 14 -224 4 l-43 -7 -70 95 c-65 87 -90 111 -90
85z"></path>
<path d="M13360 15231 c0 -10 30 -24 37 -17 3 3 2 9 -2 15 -8 13 -35 15 -35 2z"></path>
<path d="M13321 15181 c-11 -7 -10 -13 5 -35 24 -32 32 -32 40 -2 10 40 -12
58 -45 37z"></path>
<path d="M3800 15141 c-28 -8 -56 -51 -47 -73 3 -9 21 -18 40 -22 19 -4 41
-13 48 -22 11 -13 9 -14 -17 -7 -60 16 -86 10 -97 -20 -11 -35 4 -70 38 -85
24 -11 45 0 45 23 0 7 9 20 20 30 24 22 28 1 5 -29 -23 -30 -19 -61 10 -74 38
-17 62 -15 86 9 21 21 21 21 1 42 -11 12 -25 32 -31 45 -10 18 -9 22 4 22 8 0
20 -11 25 -24 13 -36 42 -49 68 -30 37 26 44 49 28 89 -13 29 -20 35 -45 35
-17 0 -31 -4 -31 -10 0 -5 -10 -10 -22 -10 -21 1 -21 2 -6 13 9 7 31 20 48 29
30 17 31 18 15 48 -14 26 -21 30 -58 30 l-42 0 3 -49 c3 -36 0 -50 -11 -54
-12 -4 -14 2 -10 32 4 27 0 42 -12 54 -18 18 -18 18 -55 8z"></path>
<path d="M13300 15131 c0 -12 6 -21 15 -21 8 0 15 3 15 6 0 3 -7 12 -15 20
-13 14 -15 13 -15 -5z"></path>
<path d="M5339 15124 c-11 -13 -11 -21 3 -45 9 -16 13 -31 9 -33 -5 -3 -13 6
-19 19 -13 28 -29 31 -57 12 -13 -10 -16 -21 -12 -39 6 -21 11 -24 39 -21 l33
3 -27 -11 c-31 -12 -37 -39 -13 -62 23 -24 55 -10 55 24 0 16 5 29 10 29 6 0
10 -13 10 -30 0 -26 3 -30 29 -30 26 0 41 14 41 39 0 4 -12 13 -26 20 -34 15
-26 25 9 12 22 -9 28 -7 37 10 14 25 6 50 -19 66 -17 11 -23 9 -40 -14 -24
-29 -26 -26 -10 11 20 43 -22 75 -52 40z"></path>
<path d="M4980 15073 c-29 -6 -40 -19 -40 -50 0 -20 5 -23 43 -23 59 0 81 17
64 50 -13 26 -26 31 -67 23z"></path>
<path d="M14034 14994 c-12 -28 -13 -45 -6 -73 l10 -36 1 47 c2 71 9 83 33 53
26 -33 128 -105 203 -143 33 -17 73 -47 88 -66 15 -20 36 -36 47 -36 10 0 22
-4 25 -10 16 -25 105 -4 105 25 0 17 -75 75 -97 75 -7 0 -13 5 -13 10 0 14
-31 12 -63 -5 -25 -13 -31 -13 -53 1 -29 19 -24 31 19 43 29 8 30 9 7 10 -14
1 -36 -6 -49 -15 -22 -16 -25 -15 -92 31 -38 26 -85 65 -103 86 -18 22 -36 39
-40 39 -4 0 -14 -16 -22 -36z"></path>
<path d="M14460 14937 c0 -14 253 -167 275 -167 5 0 -19 16 -54 36 -36 20 -97
58 -137 85 -68 45 -84 54 -84 46z"></path>
<path d="M4943 14915 c-10 -7 -16 -15 -13 -17 3 -2 18 -12 33 -22 16 -10 26
-20 24 -23 -3 -3 -16 2 -29 11 -29 21 -35 20 -48 -4 -10 -19 -6 -23 52 -49
106 -48 103 -48 106 8 2 34 -2 54 -15 70 -24 29 -86 43 -110 26z"></path>
<path d="M10223 14868 c-2 -20 58 -229 86 -300 11 -28 31 -38 31 -15 0 6 -11
48 -25 92 -14 44 -25 85 -25 91 0 10 201 -64 261 -97 37 -19 211 -216 199
-224 -5 -3 -10 -13 -10 -21 0 -24 51 -94 69 -94 9 0 27 -9 41 -20 30 -23 68
-25 97 -5 30 21 20 46 -36 95 -66 59 -65 58 -107 62 -35 3 -47 13 -135 113
-80 91 -107 115 -156 137 -32 15 -97 45 -145 67 -83 37 -87 41 -109 90 -23 55
-34 63 -36 29z"></path>
<path d="M14460 14840 c8 -5 23 -10 33 -10 9 0 17 -4 17 -10 0 -5 7 -7 16 -3
15 6 15 8 -2 20 -10 7 -32 13 -48 13 -24 0 -27 -3 -16 -10z"></path>
<path d="M14872 14811 c-28 -10 -60 -25 -71 -35 -10 -9 -26 -14 -37 -11 -16 5
-16 4 2 -5 11 -6 29 -27 39 -46 24 -45 100 -115 118 -109 7 3 24 -3 36 -14 20
-17 35 -20 97 -18 108 4 143 47 91 108 -28 34 -118 94 -163 111 -21 7 -33 17
-30 25 7 18 -19 16 -82 -6z"></path>
<path d="M15000 14822 c0 -10 181 -84 188 -77 3 3 0 5 -7 5 -7 0 -11 6 -8 14
9 24 -44 52 -110 59 -35 4 -63 3 -63 -1z"></path>
<path d="M6962 14790 l-24 -20 21 -29 c12 -16 21 -37 21 -47 0 -11 -7 -6 -23
17 -12 19 -32 35 -43 37 -29 4 -66 -40 -62 -74 3 -28 4 -29 56 -26 35 2 51 -1
47 -8 -3 -5 -12 -10 -20 -10 -8 0 -25 -5 -38 -11 -19 -8 -23 -17 -19 -37 7
-41 31 -62 69 -62 31 0 34 2 32 28 -3 42 0 62 10 62 6 0 11 -19 13 -42 3 -41
4 -43 39 -46 37 -3 64 16 71 52 2 14 -6 22 -29 30 -18 6 -38 17 -45 25 -11 12
-9 13 12 7 77 -20 79 -20 90 10 15 37 5 70 -25 90 -29 19 -55 12 -62 -15 -4
-18 -31 -36 -39 -28 -2 2 8 21 23 42 l26 38 -23 19 c-28 23 -49 22 -78 -2z"></path>
<path d="M4920 14794 c1 -27 29 -99 39 -98 28 2 32 5 26 14 -3 6 1 7 9 4 21
-8 32 22 16 42 -7 8 -20 12 -28 9 -8 -3 -26 4 -39 16 -12 13 -23 18 -23 13z"></path>
<path d="M8004 14764 c-21 -14 -40 -27 -41 -28 -1 -1 14 -25 34 -54 33 -50 38
-82 12 -82 -6 0 -9 6 -6 14 8 21 -51 86 -78 86 -12 0 -37 -13 -54 -29 -24 -23
-31 -37 -31 -68 0 -22 6 -47 13 -56 11 -16 16 -17 56 -2 48 17 101 20 101 6 0
-5 -9 -7 -20 -4 -13 4 -20 1 -18 -7 2 -7 -10 -13 -29 -15 -17 -1 -41 -12 -53
-23 -20 -18 -21 -24 -10 -57 17 -53 46 -75 97 -75 l43 0 1 48 c0 83 3 100 17
95 7 -3 12 -26 12 -62 0 -76 6 -83 70 -79 57 3 82 24 95 80 6 25 4 28 -36 38
-44 12 -89 37 -89 49 0 12 44 7 55 -6 6 -6 26 -15 47 -18 31 -6 38 -4 53 18 9
14 18 40 21 59 5 30 1 38 -35 71 -23 20 -47 37 -54 37 -21 0 -57 -30 -57 -47
0 -15 -27 -42 -42 -43 -15 0 -8 19 27 70 19 29 35 54 35 55 0 7 -56 43 -76 49
-14 4 -34 -2 -60 -20z m46 -184 c0 -5 -5 -10 -11 -10 -5 0 -7 5 -4 10 3 6 8
10 11 10 2 0 4 -4 4 -10z"></path>
<path d="M9724 14714 c-13 -72 3 -134 73 -276 36 -76 68 -136 70 -135 4 5 -38
106 -81 197 -33 68 -36 82 -36 162 0 90 -14 117 -26 52z"></path>
<path d="M11633 14700 c21 -50 37 -64 37 -33 0 18 -40 83 -52 83 -3 0 3 -22
15 -50z"></path>
<path d="M3363 14660 l-23 -9 21 -36 c25 -42 14 -47 -17 -8 -22 28 -22 28 -43
8 -12 -10 -21 -28 -19 -39 3 -18 9 -21 43 -19 l40 2 -32 -14 c-18 -8 -33 -21
-33 -29 0 -21 28 -46 51 -46 15 0 19 7 20 33 l1 32 9 -32 c7 -25 15 -33 32
-33 47 0 63 44 22 60 -14 5 -25 14 -25 20 0 6 9 6 27 -1 29 -11 37 -6 47 28 5
17 1 26 -19 39 -24 16 -27 16 -48 -2 -12 -10 -16 -12 -9 -4 17 19 15 47 -4 54
-9 3 -16 6 -17 5 -1 0 -12 -4 -24 -9z"></path>
<path d="M7196 14636 c-28 -29 -30 -36 -33 -132 -5 -175 38 -298 147 -418 95
-105 132 -167 186 -316 29 -80 32 -53 3 32 -34 101 -84 191 -160 284 -39 49
-80 106 -90 127 -39 74 -56 189 -51 330 l2 47 88 -71 c101 -82 286 -178 457
-236 l110 -38 80 -200 c80 -197 128 -301 159 -340 9 -11 -6 27 -33 85 -50 105
-166 428 -158 436 6 6 459 -118 571 -155 111 -38 162 -68 226 -133 48 -49 59
-74 41 -93 -15 -17 -40 -107 -46 -165 -5 -51 -4 -48 18 32 13 48 32 99 42 114
l17 27 31 -49 c17 -27 52 -98 79 -159 44 -101 46 -111 31 -127 -8 -9 -18 -38
-20 -62 -5 -36 -2 -47 11 -52 10 -4 14 -13 11 -24 -3 -10 1 -25 10 -33 8 -9
15 -19 15 -24 0 -5 16 -16 36 -25 l35 -16 16 33 c15 32 15 38 -4 94 -12 38
-16 61 -9 61 14 1 -45 50 -60 50 -5 0 -29 51 -52 112 -85 227 -201 375 -345
438 -90 40 -85 48 31 49 41 1 72 5 72 11 0 13 -144 13 -192 0 -33 -10 -66 -2
-321 75 -255 76 -529 173 -550 194 -9 9 23 32 116 82 54 28 65 38 54 47 -13
11 -90 -22 -195 -84 l-32 -19 -43 24 c-88 50 -146 93 -208 155 l-64 63 -29
-31z"></path>
<path d="M8368 14553 c7 -3 16 -2 19 1 4 3 -2 6 -13 5 -11 0 -14 -3 -6 -6z"></path>
<path d="M10344 14473 c-18 -19 -18 -22 6 -58 22 -32 25 -45 12 -45 -5 0 -14
11 -20 24 -18 39 -45 49 -74 26 -18 -14 -24 -27 -23 -52 l2 -33 59 3 c61 4 69
-6 13 -17 -44 -9 -58 -33 -39 -69 11 -19 25 -28 48 -30 31 -3 32 -2 32 37 0
22 5 43 10 46 6 4 10 -6 10 -24 0 -49 9 -61 46 -61 27 0 36 6 49 31 9 17 15
32 13 34 -2 1 -20 10 -41 20 -47 22 -42 29 11 16 41 -9 41 -8 52 24 13 40 5
62 -30 80 -25 13 -29 12 -45 -5 -10 -11 -14 -20 -9 -20 11 0 -18 -20 -29 -20
-5 0 1 13 12 29 26 36 27 56 4 67 -30 13 -54 12 -69 -3z"></path>
<path d="M5542 14411 c-9 -5 5 -10 39 -14 56 -7 65 -5 54 12 -7 13 -74 14 -93
2z"></path>
<path d="M10929 14390 c61 -34 68 -36 52 -17 -6 8 -9 17 -6 20 3 4 2 5 -1 2
-4 -2 -13 2 -21 10 -8 8 -29 15 -46 15 -31 0 -30 -1 22 -30z"></path>
<path d="M5086 14385 c-16 -12 -17 -18 -8 -27 20 -20 13 -32 -7 -14 -16 15
-22 15 -40 4 -13 -8 -21 -23 -21 -41 0 -26 1 -27 43 -21 42 7 45 -10 2 -18
-24 -4 -32 -33 -15 -53 17 -21 64 -20 56 0 -3 8 -2 23 2 33 5 13 8 11 12 -13
4 -25 10 -30 34 -30 30 0 62 33 40 42 -6 2 -20 10 -30 18 -18 14 -16 14 13 9
28 -6 34 -3 42 17 7 19 4 29 -16 49 l-24 25 -20 -24 c-12 -14 -19 -18 -19 -9
0 8 5 19 12 26 8 8 8 15 -2 27 -15 19 -29 19 -54 0z"></path>
<path d="M5464 14385 c-14 -10 -47 -14 -117 -15 -70 0 -98 -3 -95 -12 3 -7 30
-10 81 -9 64 2 77 0 77 -13 0 -23 80 -78 104 -72 11 3 27 1 37 -4 12 -7 31 -4
63 11 39 17 46 24 43 45 -2 13 -12 31 -23 38 -18 13 -109 33 -126 28 -5 -1 -8
3 -8 8 0 14 -13 12 -36 -5z"></path>
<path d="M8746 14267 c-18 -13 -18 -15 -1 -41 23 -34 12 -46 -14 -15 -16 20
-23 22 -38 13 -10 -6 -19 -23 -21 -38 -3 -24 0 -26 35 -27 37 -1 37 -1 11 -11
-41 -14 -35 -68 7 -68 17 0 24 7 29 30 3 17 9 30 14 30 5 0 7 -13 4 -30 -4
-29 -3 -30 31 -30 28 0 37 5 42 21 7 22 -7 39 -32 39 -6 0 -14 4 -17 9 -3 4
11 8 32 7 33 -1 37 2 40 26 2 18 -4 31 -20 42 -22 16 -24 15 -40 -4 -23 -29
-32 -25 -11 6 16 25 16 27 -2 40 -23 17 -27 17 -49 1z"></path>
<path d="M5223 14253 c-4 -10 2 -23 18 -35 116 -89 191 -170 271 -289 65 -98
68 -98 17 0 -57 108 -160 244 -227 298 -58 47 -70 51 -79 26z"></path>
<path d="M4526 14230 c-31 -20 -44 -34 -39 -43 38 -62 67 -97 81 -98 11 0 12
-2 5 -6 -7 -2 -13 -10 -13 -17 0 -6 -10 -12 -21 -13 -16 -2 -19 1 -11 9 18 18
-55 98 -89 98 -36 0 -99 -59 -99 -92 0 -20 16 -84 24 -95 1 -1 24 5 51 14 66
20 122 24 122 8 0 -7 -7 -11 -15 -8 -8 4 -19 -1 -24 -10 -4 -9 -14 -14 -22
-11 -16 6 -63 -11 -83 -31 -13 -14 -14 -22 -3 -62 16 -55 52 -81 113 -79 38 1
42 3 45 29 2 16 -2 35 -9 43 -9 11 -10 17 -2 22 16 10 28 62 14 62 -6 0 -11 5
-11 12 0 6 9 3 20 -7 15 -14 20 -31 20 -72 0 -78 11 -93 66 -93 56 0 79 12 99
50 26 50 20 75 -22 88 -20 6 -40 9 -44 6 -10 -6 -59 40 -59 56 0 9 3 10 14 1
7 -6 21 -9 30 -5 10 4 16 1 16 -9 0 -9 14 -17 38 -21 60 -10 70 -7 77 17 3 12
11 32 17 44 6 12 8 34 4 48 -9 35 -72 95 -101 95 -25 0 -62 -38 -58 -60 3 -15
-46 -45 -56 -35 -6 7 24 60 55 98 13 15 21 34 18 42 -5 12 -79 55 -95 55 -3 0
-26 -14 -53 -30z m-26 -160 c0 -5 -2 -10 -4 -10 -3 0 -8 5 -11 10 -3 6 -1 10
4 10 6 0 11 -4 11 -10z m80 -44 c0 -3 -4 -8 -10 -11 -5 -3 -10 -1 -10 4 0 6 5
11 10 11 6 0 10 -2 10 -4z"></path>
<path d="M7495 14216 c-18 -13 -18 -14 4 -50 17 -28 19 -35 7 -30 -9 3 -16 10
-16 14 0 5 -7 16 -16 24 -23 24 -54 4 -54 -35 0 -29 1 -30 38 -24 l37 6 -30
-17 c-16 -9 -32 -18 -34 -20 -2 -2 4 -15 13 -29 22 -33 56 -34 56 -1 0 14 5
28 10 31 6 4 10 -7 10 -24 0 -28 3 -31 30 -31 19 0 33 7 40 19 14 27 14 27
-20 41 -16 7 -30 16 -30 21 0 12 17 11 25 -1 12 -20 45 -10 51 15 8 33 -21 68
-49 59 -13 -4 -17 -2 -12 5 8 14 -12 41 -29 41 -7 0 -21 -6 -31 -14z m55 -56
c0 -5 -5 -10 -11 -10 -5 0 -7 5 -4 10 3 6 8 10 11 10 2 0 4 -4 4 -10z"></path>
<path d="M3211 14207 c-8 -10 -7 -19 4 -33 23 -30 17 -40 -9 -15 -21 20 -26
21 -45 9 -15 -9 -21 -21 -19 -38 3 -22 7 -25 38 -22 l35 2 -27 -15 c-44 -25
-31 -75 19 -75 19 0 23 5 23 31 0 18 4 28 10 24 6 -4 8 -15 5 -26 -9 -27 43
-39 62 -14 19 27 16 43 -9 47 -12 2 -23 9 -26 16 -3 9 3 10 23 2 35 -13 34
-14 46 16 7 21 6 31 -7 45 -21 23 -38 24 -58 3 -19 -19 -21 -11 -3 16 10 17 9
22 -3 30 -21 14 -46 12 -59 -3z"></path>
<path d="M10337 14163 c-14 -23 -47 -150 -46 -177 0 -22 5 -10 19 40 10 38 25
87 34 107 8 20 11 37 6 37 -5 0 -11 -3 -13 -7z"></path>
<path d="M10529 14111 c22 -32 63 -83 91 -112 l51 -54 -59 76 c-32 42 -69 92
-81 112 -12 20 -27 37 -32 37 -5 0 8 -26 30 -59z"></path>
<path d="M8890 14082 c0 -5 23 -19 51 -32 29 -12 81 -42 118 -66 61 -41 63
-41 26 -9 -44 38 -195 121 -195 107z"></path>
<path d="M8310 13981 c-9 -3 -26 -14 -39 -23 l-24 -17 26 -40 c28 -42 35 -71
17 -71 -5 0 -9 3 -7 8 2 9 -30 51 -55 70 -15 12 -22 10 -54 -14 -34 -26 -36
-31 -31 -72 2 -23 8 -46 11 -50 4 -3 26 0 49 9 46 16 110 11 72 -6 -11 -5 -24
-9 -30 -10 -5 0 -25 -7 -42 -14 -39 -16 -42 -40 -13 -88 17 -29 25 -33 64 -33
l45 0 -2 49 c-1 29 3 55 11 62 10 10 12 3 12 -36 0 -69 8 -77 66 -73 45 3 50
6 66 38 22 46 22 47 -4 55 -41 13 -88 37 -88 46 0 12 37 12 42 0 2 -5 19 -12
40 -16 31 -6 38 -4 48 15 23 43 17 89 -16 115 -45 37 -94 29 -94 -16 0 -16
-28 -35 -38 -25 -2 3 10 26 27 51 17 25 31 48 31 50 0 11 -77 42 -90 36z"></path>
<path d="M2785 13687 c-55 -74 -80 -113 -60 -95 5 4 15 2 23 -5 13 -10 14 -9
7 2 -6 11 -4 13 9 8 9 -4 14 -3 11 2 -3 5 3 12 14 16 19 6 40 46 59 118 6 20
7 37 4 36 -4 0 -34 -37 -67 -82z"></path>
<path d="M7521 13684 c0 -11 3 -14 6 -6 3 7 2 16 -1 19 -3 4 -6 -2 -5 -13z"></path>
<path d="M3751 13659 c-6 -18 -11 -43 -11 -55 0 -20 5 -23 28 -22 15 1 32 9
39 18 18 22 17 80 -1 80 -8 0 -21 3 -29 6 -10 3 -18 -5 -26 -27z"></path>
<path d="M3868 13660 c4 -30 16 -37 38 -22 17 11 -2 52 -24 52 -15 0 -18 -6
-14 -30z"></path>
<path d="M3695 13656 c-18 -13 -18 -14 -1 -31 20 -20 28 -15 32 20 3 28 -4 31
-31 11z"></path>
<path d="M7525 13631 c-36 -70 -138 -205 -190 -253 -69 -63 -90 -103 -70 -131
11 -15 15 -15 51 3 46 23 78 53 105 98 21 36 39 42 39 13 0 -12 13 -23 43 -34
61 -22 107 -29 107 -16 0 8 4 8 14 0 11 -9 15 -7 19 9 3 11 2 20 -3 20 -4 0
-7 12 -7 26 l0 25 21 -20 c40 -38 47 -23 16 37 -17 33 -32 84 -36 117 -8 62
-30 95 -64 95 -10 0 -23 7 -27 15 -7 12 -10 11 -18 -4z"></path>
<path d="M9045 13420 c8 -16 15 -36 15 -44 0 -18 16 -30 24 -18 7 11 -33 92
-45 92 -5 0 -3 -13 6 -30z"></path>
<path d="M4423 13417 c10 -7 51 -36 92 -64 40 -29 75 -53 78 -53 2 0 2 11 -1
25 -2 14 -9 25 -14 25 -5 0 -7 4 -4 9 9 14 -27 38 -83 55 -66 19 -95 21 -68 3z"></path>
<path d="M7396 13143 c-26 -67 -34 -99 -27 -107 13 -16 86 -19 112 -5 59 31
83 169 30 169 -9 0 -30 9 -47 19 l-32 19 -36 -95z m78 6 c-25 -27 -29 -16 -7
21 13 23 19 27 21 15 2 -9 -4 -25 -14 -36z"></path>
<path d="M7376 13212 c-3 -5 -32 -17 -66 -27 -33 -10 -60 -24 -60 -30 0 -17
25 -36 35 -27 5 4 5 2 2 -4 -4 -6 0 -19 7 -29 12 -16 15 -16 47 15 19 18 26
29 17 26 -24 -7 -23 1 7 36 14 16 25 34 25 39 0 11 -7 12 -14 1z"></path>
<path d="M7624 13141 c0 -32 4 -57 7 -55 3 2 14 -3 25 -10 13 -10 24 -11 40
-4 31 14 35 30 21 80 -12 41 -15 43 -54 46 l-40 3 1 -60z"></path>
<path d="M9703 10517 c-10 -13 -38 -65 -63 -115 l-44 -92 -243 0 c-231 0 -245
1 -272 21 -24 18 -43 21 -159 22 -121 1 -133 0 -161 -21 -27 -19 -43 -22 -131
-22 -94 0 -103 -2 -125 -25 l-25 -24 0 -721 0 -721 25 -24 24 -25 1159 0
c1158 0 1159 0 1186 21 l26 20 0 727 c0 400 -4 732 -8 738 -18 27 -56 34 -194
34 l-144 0 -44 92 c-25 50 -53 102 -63 115 l-18 23 -354 0 -354 0 -18 -23z
m327 -17 c-124 -3 -233 -9 -243 -14 -27 -13 -49 -63 -42 -97 4 -16 18 -38 32
-49 24 -19 40 -20 290 -20 l265 0 29 29 c46 47 32 108 -32 142 l-34 17 50 -3
c28 -1 55 -3 62 -4 6 0 37 -53 67 -116 l55 -115 159 0 c109 0 162 -4 170 -12
16 -16 17 -1399 2 -1429 -10 -19 -34 -19 -1164 -19 -961 0 -1155 2 -1165 14
-8 9 -10 208 -9 727 l3 714 115 3 c81 2 118 6 125 16 21 28 57 36 155 36 99 0
137 -9 153 -36 6 -11 61 -14 278 -14 l269 0 57 115 c48 95 61 115 83 118 14 2
131 4 260 3 l235 0 -225 -6z m302 -57 c10 -9 18 -26 18 -38 0 -45 -18 -49
-256 -53 -123 -3 -239 -1 -259 2 -47 9 -65 44 -41 81 l16 25 252 0 c220 0 254
-2 270 -17z"></path>
<path d="M9837 10165 c-152 -33 -312 -150 -391 -284 -68 -116 -81 -169 -81
-321 0 -127 2 -139 31 -212 120 -296 427 -455 729 -378 107 27 197 80 281 164
77 78 120 146 155 246 34 99 32 266 -4 375 -100 300 -412 478 -720 410z m272
-41 c196 -48 350 -194 417 -394 13 -40 18 -85 18 -165 0 -168 -49 -290 -164
-405 -149 -150 -365 -206 -567 -147 -96 28 -152 60 -229 129 -190 174 -239
447 -122 688 37 78 156 201 235 243 116 62 283 83 412 51z"></path>
<path d="M2214 9550 c0 -118 2 -167 3 -107 2 59 2 155 0 215 -1 59 -3 10 -3
-108z"></path>
<path d="M2209 8868 c0 -2 -3 -84 -5 -183 -2 -99 -6 -197 -8 -217 -2 -24 2
-39 11 -42 11 -4 13 35 13 219 0 187 -3 244 -11 223z"></path>
<path d="M17304 8145 c0 -99 2 -138 3 -87 2 51 2 132 0 180 -1 48 -3 6 -3 -93z"></path>
<path d="M8660 8174 c-34 -78 -21 -104 23 -49 27 34 96 63 117 50 6 -4 10 -72
10 -165 l0 -158 -30 -11 c-16 -5 -30 -12 -30 -15 0 -4 41 -6 90 -6 53 0 90 4
90 10 0 6 -8 10 -19 10 -37 0 -42 21 -39 181 l3 154 30 -2 c45 -4 81 -22 95
-49 8 -13 22 -24 32 -24 23 0 23 -1 -6 65 -24 52 -38 66 -50 46 -8 -13 -263
-14 -271 -1 -12 20 -26 9 -45 -36z"></path>
<path d="M7243 8202 c-13 -2 -23 -7 -23 -12 0 -5 10 -10 23 -12 22 -3 22 -5
22 -168 0 -163 0 -165 -22 -168 -13 -2 -23 -8 -23 -13 0 -5 38 -9 85 -9 50 0
85 4 85 10 0 6 -9 10 -20 10 -27 0 -42 33 -38 88 l3 47 50 2 c103 6 135 14
170 45 28 24 35 37 35 68 0 43 -26 82 -67 98 -27 11 -232 21 -280 14z m251
-53 c32 -25 36 -79 7 -108 -21 -21 -88 -35 -137 -29 -28 3 -29 4 -32 67 -4 90
-3 91 71 91 50 0 70 -5 91 -21z"></path>
<path d="M7970 8200 c-61 -5 -63 -10 -15 -25 11 -3 15 -21 15 -75 l0 -70 -115
0 -116 0 3 73 c3 70 4 72 31 75 15 2 27 8 27 13 0 5 -40 9 -90 9 -49 0 -90 -4
-90 -9 0 -5 12 -11 28 -13 l27 -3 0 -165 0 -165 -27 -3 c-16 -2 -28 -8 -28
-13 0 -5 41 -9 90 -9 50 0 90 4 90 9 0 5 -12 11 -27 13 -28 3 -28 4 -31 81
l-3 77 116 0 116 0 -3 -77 c-3 -77 -3 -78 -30 -81 -16 -2 -28 -8 -28 -13 0 -5
41 -9 90 -9 50 0 90 4 90 9 0 5 -12 11 -27 13 l-28 3 -3 145 c-3 174 -1 190
34 190 33 0 27 22 -6 24 -14 1 -54 -1 -90 -4z"></path>
<path d="M8296 8200 c-122 -39 -181 -173 -124 -280 64 -119 257 -148 367 -54
48 42 65 87 59 165 -5 68 -24 99 -86 143 -34 24 -52 29 -114 32 -40 2 -86 -1
-102 -6z m159 -37 c102 -49 99 -249 -5 -304 -131 -70 -264 58 -220 210 26 91
135 137 225 94z"></path>
<path d="M9228 8201 c-92 -30 -148 -103 -148 -192 1 -126 106 -209 251 -196
58 5 122 32 151 64 27 30 48 89 48 136 0 108 -88 189 -209 194 -36 1 -78 -2
-93 -6z m159 -41 c45 -27 63 -60 70 -123 7 -69 -8 -114 -52 -157 -63 -61 -175
-50 -227 23 -34 48 -37 143 -7 198 41 72 147 102 216 59z"></path>
<path d="M9814 8201 c-10 -10 -2 -20 19 -23 22 -3 22 -5 22 -168 0 -163 0
-165 -22 -168 -13 -2 -23 -8 -23 -13 0 -5 38 -9 85 -9 47 0 85 4 85 9 0 5 -10
11 -22 13 -21 3 -23 9 -26 81 l-3 77 30 0 c51 0 81 -17 87 -50 4 -16 13 -30
20 -30 11 0 14 19 14 84 0 47 -4 87 -9 90 -5 3 -18 -10 -30 -29 -18 -32 -24
-35 -66 -35 l-45 0 0 70 0 70 69 0 c64 0 131 -14 131 -28 1 -4 10 -18 21 -31
32 -39 45 -13 21 43 -12 25 -25 46 -29 47 -33 3 -325 3 -329 0z"></path>
<path d="M10870 8203 c-9 -2 -44 -73 -85 -170 -38 -91 -76 -172 -83 -180 -7
-7 -27 -13 -44 -13 -24 0 -45 15 -104 72 -41 39 -74 75 -74 80 0 4 19 11 42
15 104 16 135 133 48 178 -22 12 -66 15 -190 15 -92 0 -160 -4 -160 -9 0 -5
12 -11 28 -13 l27 -3 3 -163 2 -162 -30 -6 c-55 -11 -20 -24 66 -24 49 0 84 4
84 10 0 6 -8 10 -18 10 -32 0 -42 22 -42 92 l0 68 29 0 c24 0 43 -15 108 -90
l78 -89 123 -1 c75 0 122 4 122 10 0 6 -9 10 -19 10 -31 0 -32 13 -9 69 l22
51 78 0 79 0 20 -47 c21 -49 19 -73 -6 -73 -8 0 -15 -4 -15 -10 0 -6 33 -10
80 -10 47 0 80 4 80 10 0 6 -6 10 -13 10 -25 0 -44 34 -112 197 -66 158 -77
174 -115 166z m-342 -49 c15 -10 22 -25 22 -47 0 -60 -30 -77 -134 -77 l-76 0
0 70 0 70 83 0 c59 0 89 -5 105 -16z m398 -139 c6 -25 5 -25 -55 -25 -34 0
-61 2 -61 4 0 4 19 50 46 114 l16 37 24 -53 c13 -28 26 -63 30 -77z"></path>
<path d="M11595 8203 l-60 -4 -60 -144 c-33 -80 -62 -145 -65 -145 -3 0 -32
65 -65 145 l-60 145 -72 0 c-42 0 -73 -4 -73 -10 0 -5 11 -10 24 -10 13 0 27
-7 30 -16 10 -27 7 -284 -4 -305 -6 -10 -20 -19 -30 -19 -11 0 -20 -4 -20 -10
0 -6 33 -10 80 -10 80 0 106 12 50 24 l-30 6 1 147 c0 98 3 141 10 128 5 -11
35 -83 68 -160 78 -184 82 -185 146 -33 25 62 57 136 70 163 l23 50 1 -140 c1
-146 -4 -165 -41 -165 -10 0 -18 -4 -18 -10 0 -6 37 -10 90 -10 53 0 90 4 90
10 0 6 -8 10 -18 10 -37 0 -42 19 -42 170 0 151 5 170 43 170 10 0 17 5 15 12
-5 14 -8 15 -83 11z"></path>
<path d="M11763 8202 c-27 -4 -31 -22 -5 -22 37 0 42 -19 42 -163 0 -144 -7
-177 -40 -177 -11 0 -20 -4 -20 -10 0 -6 70 -10 189 -10 l189 0 21 51 c13 28
20 58 16 67 -5 13 -14 7 -43 -26 -46 -52 -73 -62 -173 -62 l-79 0 0 76 0 75
53 -3 c49 -3 53 -5 62 -35 5 -18 15 -33 22 -33 10 0 13 22 13 85 0 69 -3 85
-15 85 -8 0 -15 -9 -15 -19 0 -28 -38 -51 -82 -51 l-38 0 0 70 0 70 88 0 c95
0 144 -19 157 -59 3 -12 10 -21 15 -21 19 0 21 23 4 65 -14 37 -21 45 -43 46
-124 3 -300 3 -318 1z"></path>
<path d="M2202 7958 c-9 -9 -12 -75 -12 -234 0 -188 2 -223 15 -228 13 -5 15
25 15 234 0 132 -1 240 -3 240 -2 0 -8 -5 -15 -12z"></path>
<path d="M17300 7266 c0 -125 4 -225 8 -222 8 5 5 437 -4 445 -2 2 -4 -98 -4
-223z"></path>
<path d="M2212 7252 c-1 -157 -5 -207 -16 -217 -15 -16 -30 -234 -24 -364 2
-58 7 -76 22 -86 17 -13 18 -26 14 -229 -4 -189 -7 -218 -22 -229 -15 -11 -17
-38 -19 -223 -2 -171 1 -214 12 -228 12 -14 14 -58 12 -234 -2 -188 -4 -219
-19 -230 -14 -11 -17 -42 -20 -228 -3 -210 -2 -216 18 -221 19 -5 20 -12 20
-223 l0 -219 -25 -19 -25 -20 0 -215 c0 -204 1 -216 19 -222 18 -6 20 -17 20
-183 0 -223 -5 -269 -29 -277 -17 -5 -19 -21 -20 -225 -1 -215 0 -219 21 -225
21 -7 21 -9 17 -226 -4 -210 -5 -220 -25 -234 -21 -15 -22 -23 -23 -203 0
-103 -3 -200 -5 -215 -4 -22 -1 -28 20 -33 23 -6 25 -10 25 -65 l0 -59 154 0
c125 0 155 -3 159 -14 5 -13 40 -14 224 -9 153 4 222 9 233 18 22 19 436 31
456 14 22 -19 421 -13 451 6 17 11 70 15 237 15 119 1 220 -2 226 -5 10 -6
384 -7 420 -2 8 2 22 7 30 12 9 6 184 9 455 9 271 -1 447 2 458 8 11 6 194 10
465 10 246 0 452 3 457 8 6 4 280 11 610 15 330 4 697 9 815 11 118 3 395 8
615 13 245 5 -921 8 -3002 9 l-3403 2 -3 2717 c-1 1495 -3 2627 -5 2515z"></path>
<path d="M17300 6362 c0 -211 1 -231 16 -225 15 6 16 27 10 222 -10 296 -26
298 -26 3z"></path>
<path d="M17300 3852 l0 -1832 -3172 -2 c-1745 -1 -3132 -3 -3083 -5 210 -6
1681 -28 1910 -28 138 -1 374 -5 525 -10 359 -11 823 -17 1240 -15 220 0 411
-5 555 -15 121 -9 274 -15 340 -12 226 8 559 6 570 -3 18 -15 455 -25 455 -11
0 18 433 13 457 -5 13 -9 55 -13 146 -14 l127 0 0 53 c0 47 -3 55 -25 67 -19
10 -22 16 -13 22 10 6 10 10 -2 18 -8 5 -10 10 -5 10 10 0 11 44 4 264 -3 112
-1 130 14 141 15 11 17 35 17 226 0 193 -2 215 -17 225 -16 10 -18 35 -21 231
-3 193 -2 222 12 230 20 11 19 9 18 251 -2 162 -5 202 -15 202 -15 0 -27 153
-27 346 0 88 3 105 18 115 15 10 17 30 14 232 -2 182 -5 223 -17 230 -13 7
-15 46 -15 233 0 170 3 226 13 229 9 4 12 55 10 217 -2 176 -4 214 -17 227
-15 14 -16 -159 -16 -1817z"></path>
</g>
</svg>
