<?xml version="1.0" standalone="no"?>
<!DOCTYPE svg PUBLIC "-//W3C//DTD SVG 20010904//EN"
 "http://www.w3.org/TR/2001/REC-SVG-20010904/DTD/svg10.dtd">
<svg version="1.0" xmlns="http://www.w3.org/2000/svg"
 width="371.000000pt" height="327.000000pt" viewBox="0 0 371.000000 327.000000"
 preserveAspectRatio="xMidYMid meet">

<g transform="translate(0.000000,327.000000) scale(0.100000,-0.100000)"
fill="#000000" stroke="none">
<path d="M380 1625 l0 -1455 1450 0 1450 0 0 1455 0 1455 -1450 0 -1450 0 0
-1455z m300 1270 l0 -125 -118 0 c-65 0 -121 2 -123 4 -2 2 -3 59 -1 125 l3
121 120 0 119 0 0 -125z m90 -25 l0 -150 180 0 180 0 0 75 0 75 190 0 190 0 0
30 0 30 -190 0 -190 0 0 45 0 45 700 0 700 0 0 -45 0 -45 -190 0 -190 0 0 -30
0 -30 190 0 190 0 0 -75 0 -75 180 0 180 0 0 150 c0 127 2 150 15 150 13 0 15
-23 15 -150 l0 -150 150 0 c127 0 150 -2 150 -15 0 -13 -23 -15 -150 -15
l-150 0 2 -182 3 -183 73 -3 72 -3 0 -190 0 -190 28 3 27 3 3 188 2 187 48 0
47 0 -3 -695 -2 -695 -45 0 -45 0 0 190 0 190 -30 0 -30 0 0 -190 0 -190 -75
0 -75 0 0 -180 0 -180 150 0 c127 0 150 -2 150 -15 0 -13 -23 -15 -150 -15
l-150 0 0 -155 c0 -131 -2 -155 -15 -155 -13 0 -15 24 -15 155 l0 155 -180 0
-180 0 0 -75 0 -75 -190 0 -190 0 0 -30 0 -30 188 -2 187 -3 0 -45 0 -45 -695
0 -695 0 0 45 0 45 188 3 188 2 -3 28 -3 27 -187 3 -188 2 0 75 0 75 -180 0
-180 0 0 -155 c0 -131 -2 -155 -15 -155 -13 0 -15 24 -15 155 l0 154 -150 3
c-200 4 -200 22 0 26 l150 3 0 179 0 180 -75 0 -75 0 0 190 0 190 -30 0 -30 0
0 -190 0 -190 -45 0 -45 0 0 690 c0 380 0 693 0 697 0 4 9 7 20 6 11 0 31 -1
45 -2 l25 -1 2 -187 3 -188 28 -3 27 -3 0 190 c0 175 1 191 18 192 9 0 42 1
72 2 l55 2 3 183 2 182 -150 0 c-127 0 -150 2 -150 15 0 13 23 15 150 15 l150
0 0 150 c0 127 2 150 15 150 13 0 15 -23 15 -150z m300 25 l0 -125 -45 0 -45
0 0 80 0 80 -75 0 -75 0 0 45 0 45 120 0 120 0 0 -125z m1760 80 l0 -45 -75 0
-75 0 0 -80 0 -80 -45 0 -45 0 0 125 0 125 120 0 120 0 0 -45z m392 -76 c2
-66 1 -123 -1 -125 -2 -2 -58 -4 -123 -4 l-118 0 0 125 0 125 119 0 120 0 3
-121z m-2302 -79 l0 -50 -45 0 -45 0 0 50 0 50 45 0 45 0 0 -50z m1910 0 l0
-50 -45 0 -45 0 0 50 0 50 45 0 45 0 0 -50z m-2300 -265 l0 -75 75 0 75 0 0
-50 0 -50 -120 0 -120 0 0 125 0 125 45 0 45 0 0 -75z m150 31 l0 -44 -45 -4
-45 -3 0 47 0 48 45 0 45 0 0 -44z m2390 -1 l0 -45 -45 0 -45 0 0 45 0 45 45
0 45 0 0 -45z m150 -80 l0 -125 -120 0 -120 0 0 50 0 50 75 0 75 0 0 75 0 75
45 0 45 0 0 -125z m-2540 -1680 l0 -45 -75 0 -75 0 0 -74 0 -74 -45 -4 -45 -3
0 122 0 123 120 0 120 0 0 -45z m2540 -75 l0 -120 -45 0 -45 0 0 75 0 75 -75
0 -75 0 0 45 0 45 120 0 120 0 0 -120z m-2540 -78 l0 -47 -45 3 -45 4 0 44 0
44 45 0 45 0 0 -48z m2390 3 l0 -45 -45 0 -45 0 0 45 0 45 45 0 45 0 0 -45z
m-2388 -320 l-3 -125 -119 0 -119 0 -3 125 -3 125 125 0 125 0 -3 -125z m238
77 l0 -47 -45 3 -45 4 0 44 0 44 45 0 45 0 0 -48z m150 -77 l0 -125 -120 0
-120 0 0 50 0 50 75 0 75 0 0 75 0 75 45 0 45 0 0 -125z m1610 50 l0 -75 74 0
74 0 4 -32 c7 -69 9 -68 -123 -68 l-119 0 0 125 0 125 45 0 45 0 0 -75z m150
30 l0 -45 -45 0 -45 0 0 45 0 45 45 0 45 0 0 -45z m392 -80 l-3 -125 -120 0
c-107 0 -119 2 -119 18 -1 9 -2 65 -3 125 l-2 107 125 0 125 0 -3 -125z"/>
<path d="M470 2895 l0 -86 88 3 87 3 0 80 0 80 -87 3 -88 3 0 -86z m118 3 c3
-25 0 -28 -27 -28 -28 0 -31 3 -31 31 0 27 3 30 28 27 21 -2 28 -9 30 -30z"/>
<path d="M3014 2967 c-3 -8 -4 -45 -2 -83 l3 -69 88 -3 87 -3 0 86 0 85 -85 0
c-63 0 -87 -4 -91 -13z m116 -67 c0 -27 -3 -30 -30 -30 -25 0 -30 4 -30 23 0
13 3 27 7 30 3 4 17 7 30 7 19 0 23 -5 23 -30z"/>
<path d="M470 355 l0 -86 88 3 87 3 0 80 0 80 -87 3 -88 3 0 -86z m120 0 c0
-21 -5 -25 -30 -25 -25 0 -30 4 -30 25 0 21 5 25 30 25 25 0 30 -4 30 -25z"/>
<path d="M3014 427 c-3 -8 -4 -45 -2 -83 l3 -69 88 -3 87 -3 0 86 0 85 -85 0
c-63 0 -87 -4 -91 -13z m116 -72 c0 -21 -5 -25 -30 -25 -25 0 -30 4 -30 25 0
21 5 25 30 25 25 0 30 -4 30 -25z"/>
</g>
</svg>
